<svg width="43" height="46" viewBox="0 0 43 46" fill="none" xmlns="http://www.w3.org/2000/svg">
<path fill-rule="evenodd" clip-rule="evenodd" d="M21.0132 46H21.0332C21.5878 46 22.0344 45.552 22.0344 45C22.0344 44.448 21.5858 43.9999 21.0332 43.9999C20.4806 43.9999 20.0221 44.448 20.0221 45C20.0221 45.552 20.4606 46 21.0132 46ZM21.0132 42H21.0332C21.5878 42 22.0344 41.552 22.0344 41C22.0344 40.448 21.5858 40 21.0332 40C20.4806 40 20.0221 40.4479 20.0221 40.9999C20.0221 41.5519 20.4606 42 21.0132 42ZM21.0332 38.0001H21.0132C20.4606 38.0001 20.0221 37.552 20.0221 37C20.0221 36.448 20.4806 36 21.0332 36C21.5858 36 22.0344 36.448 22.0344 37C22.0344 37.552 21.5878 38.0001 21.0332 38.0001ZM21.0132 34H21.0332C21.5878 34 22.0344 33.552 22.0344 33C22.0344 32.448 21.5858 31.9999 21.0332 31.9999C20.4806 31.9999 20.0221 32.448 20.0221 33C20.0221 33.552 20.4606 34 21.0132 34ZM21.0332 30H21.0132C20.4606 30 20.0221 29.5519 20.0221 28.9999C20.0221 28.4479 20.4806 28 21.0332 28C21.5858 28 22.0344 28.448 22.0344 29C22.0344 29.552 21.5878 30 21.0332 30ZM21.0132 26.0001H21.0332C21.5878 26.0001 22.0344 25.552 22.0344 25C22.0344 24.448 21.5858 24 21.0332 24C20.4806 24 20.0221 24.448 20.0221 25C20.0221 25.552 20.4606 26.0001 21.0132 26.0001ZM21.0332 22H21.0132C20.4606 22 20.0221 21.552 20.0221 21C20.0221 20.448 20.4806 19.9999 21.0332 19.9999C21.5858 19.9999 22.0344 20.448 22.0344 21C22.0344 21.552 21.5878 22 21.0332 22ZM17.0087 42H17.0287C17.5833 42 18.0318 41.552 18.0318 41C18.0318 40.448 17.5833 40 17.0307 40C16.4781 40 16.0196 40.4479 16.0196 40.9999C16.0196 41.5519 16.4561 42 17.0087 42ZM17.0287 38.0001H17.0087C16.4561 38.0001 16.0196 37.552 16.0196 37C16.0196 36.448 16.4781 36 17.0307 36C17.5833 36 18.0318 36.448 18.0318 37C18.0318 37.552 17.5833 38.0001 17.0287 38.0001ZM17.0087 34H17.0287C17.5833 34 18.0318 33.552 18.0318 33C18.0318 32.448 17.5833 31.9999 17.0307 31.9999C16.4781 31.9999 16.0196 32.448 16.0196 33C16.0196 33.552 16.4561 34 17.0087 34ZM17.0287 30H17.0087C16.4561 30 16.0196 29.5519 16.0196 28.9999C16.0196 28.4479 16.4781 28 17.0307 28C17.5833 28 18.0318 28.448 18.0318 29C18.0318 29.552 17.5833 30 17.0287 30ZM17.0089 26.0001H17.0289C17.5835 26.0001 18.03 25.552 18.03 25C18.03 24.448 17.5815 24 17.0289 24C16.4763 24 16.0178 24.448 16.0178 25C16.0178 25.552 16.4563 26.0001 17.0089 26.0001ZM13.0244 38.0001H13.0044C12.4518 38.0001 12.0153 37.552 12.0153 37C12.0153 36.448 12.4737 36 13.0264 36C13.579 36 14.0275 36.448 14.0275 37C14.0275 37.552 13.5791 38.0001 13.0244 38.0001ZM13.0044 34H13.0244C13.5791 34 14.0275 33.552 14.0275 33C14.0275 32.448 13.579 31.9999 13.0264 31.9999C12.4737 31.9999 12.0153 32.448 12.0153 33C12.0153 33.552 12.4518 34 13.0044 34ZM13.0244 30H13.0044C12.4518 30 12.0153 29.5519 12.0153 28.9999C12.0153 28.4479 12.4738 28 13.0264 28C13.5791 28 14.0276 28.448 14.0276 29C14.0276 29.552 13.5791 30 13.0244 30ZM13.0046 26.0001H13.0246C13.5792 26.0001 14.0257 25.552 14.0257 25C14.0257 24.448 13.5772 24 13.0246 24C12.4719 24 12.0135 24.448 12.0135 25C12.0135 25.552 12.4519 26.0001 13.0046 26.0001ZM9.02005 34H9.00006C8.44744 34 8.01092 33.552 8.01092 33C8.01092 32.448 8.4694 31.9999 9.02202 31.9999C9.57464 31.9999 10.0232 32.448 10.0232 33C10.0232 33.552 9.57464 34 9.02005 34ZM9.00006 30H9.02005C9.57464 30 10.0232 29.552 10.0232 29C10.0232 28.448 9.57464 28 9.02202 28C8.4694 28 8.01092 28.4479 8.01092 28.9999C8.01092 29.5519 8.44744 30 9.00006 30ZM9.02022 26.0001H9.00023C8.44761 26.0001 8.00912 25.552 8.00912 25C8.00912 24.448 8.4676 24 9.02022 24C9.57284 24 10.0214 24.448 10.0214 25C10.0214 25.552 9.57481 26.0001 9.02022 26.0001ZM4.99572 30H5.01571C5.5703 30 6.01884 29.552 6.01884 29C6.01884 28.448 5.5703 28 5.01768 28C4.46506 28 4.00658 28.4479 4.00658 28.9999C4.00658 29.5519 4.4431 30 4.99572 30ZM5.01544 26.0001H4.99545C4.44283 26.0001 4.00434 25.552 4.00434 25C4.00434 24.448 4.46282 24 5.01544 24C5.56806 24 6.01659 24.448 6.01659 25C6.01659 25.552 5.57003 26.0001 5.01544 26.0001ZM0.99111 26.0001H1.0111C1.56579 26.0001 2.01225 25.552 2.01225 25C2.01225 24.448 1.56372 24 1.0111 24C0.458482 24 0 24.448 0 25C0 25.552 0.438491 26.0001 0.99111 26.0001ZM25.038 42H25.018C24.4654 42 24.0269 41.5519 24.0269 40.9999C24.0269 40.4479 24.4854 40 25.038 40C25.5906 40 26.0392 40.448 26.0392 41C26.0392 41.552 25.5927 42 25.038 42ZM25.018 38.0001H25.038C25.5927 38.0001 26.0392 37.552 26.0392 37C26.0392 36.448 25.5906 36 25.038 36C24.4854 36 24.0269 36.448 24.0269 37C24.0269 37.552 24.4654 38.0001 25.018 38.0001ZM25.038 34H25.018C24.4654 34 24.0269 33.552 24.0269 33C24.0269 32.448 24.4854 31.9999 25.038 31.9999C25.5906 31.9999 26.0392 32.448 26.0392 33C26.0392 33.552 25.5927 34 25.038 34ZM25.018 30H25.038C25.5927 30 26.0392 29.552 26.0392 29C26.0392 28.448 25.5906 28 25.038 28C24.4854 28 24.0269 28.4479 24.0269 28.9999C24.0269 29.5519 24.4654 30 25.018 30ZM25.038 26.0001H25.018C24.4654 26.0001 24.0269 25.552 24.0269 25C24.0269 24.448 24.4854 24 25.038 24C25.5906 24 26.0392 24.448 26.0392 25C26.0392 25.552 25.5927 26.0001 25.038 26.0001ZM29.0228 38.0001H29.0428C29.5974 38.0001 30.044 37.552 30.044 37C30.044 36.448 29.5954 36 29.0428 36C28.4902 36 28.0317 36.448 28.0317 37C28.0317 37.552 28.4702 38.0001 29.0228 38.0001ZM29.0428 34H29.0228C28.4702 34 28.0317 33.552 28.0317 33C28.0317 32.448 28.4902 31.9999 29.0428 31.9999C29.5954 31.9999 30.044 32.448 30.044 33C30.044 33.552 29.5974 34 29.0428 34ZM29.0228 30H29.0428C29.5974 30 30.044 29.552 30.044 29C30.044 28.448 29.5954 28 29.0428 28C28.4902 28 28.0317 28.4479 28.0317 28.9999C28.0317 29.5519 28.4702 30 29.0228 30ZM29.0428 26.0001H29.0228C28.4702 26.0001 28.0317 25.552 28.0317 25C28.0317 24.448 28.4902 24 29.0428 24C29.5954 24 30.044 24.448 30.044 25C30.044 25.552 29.5974 26.0001 29.0428 26.0001ZM33.0271 34H33.0471C33.6017 34 34.0483 33.552 34.0483 33C34.0483 32.448 33.5998 31.9999 33.0471 31.9999C32.4945 31.9999 32.036 32.448 32.036 33C32.036 33.552 32.4745 34 33.0271 34ZM33.0471 30H33.0271C32.4745 30 32.036 29.5519 32.036 28.9999C32.036 28.4479 32.4945 28 33.0471 28C33.5998 28 34.0483 28.448 34.0483 29C34.0483 29.552 33.6017 30 33.0471 30ZM33.0271 26.0001H33.0471C33.6017 26.0001 34.0483 25.552 34.0483 25C34.0483 24.448 33.5998 24 33.0471 24C32.4945 24 32.036 24.448 32.036 25C32.036 25.552 32.4745 26.0001 33.0271 26.0001ZM37.0515 30H37.0315C36.4789 30 36.0404 29.5519 36.0404 28.9999C36.0404 28.4479 36.4989 28 37.0515 28C37.6041 28 38.0526 28.448 38.0526 29C38.0526 29.552 37.6062 30 37.0515 30ZM37.0315 26.0001H37.0515C37.6062 26.0001 38.0526 25.552 38.0526 25C38.0526 24.448 37.6041 24 37.0515 24C36.4989 24 36.0404 24.448 36.0404 25C36.0404 25.552 36.4789 26.0001 37.0315 26.0001ZM41.0563 26.0001H41.0363C40.4836 26.0001 40.0452 25.552 40.0452 25C40.0452 24.448 40.5036 24 41.0563 24C41.6089 24 42.0574 24.448 42.0574 25C42.0574 25.552 41.6108 26.0001 41.0563 26.0001ZM21.0132 18H21.0332C21.5878 18 22.0344 17.5521 22.0344 17.0001C22.0344 16.4481 21.5858 16 21.0332 16C20.4806 16 20.0221 16.448 20.0221 17C20.0221 17.552 20.4606 18 21.0132 18ZM21.0332 14H21.0132C20.4606 14 20.0221 13.552 20.0221 13C20.0221 12.448 20.4806 12 21.0332 12C21.5858 12 22.0344 12.448 22.0344 13C22.0344 13.552 21.5878 14 21.0332 14ZM21.0132 10H21.0332C21.5878 10 22.0343 9.55198 22.0344 8.99997C22.0344 8.44798 21.5858 7.99994 21.0332 7.99994C20.4806 7.99994 20.0221 8.44798 20.0221 8.99997C20.0221 9.55198 20.4606 10 21.0132 10ZM21.0332 5.99999H21.0132C20.4606 5.99999 20.0221 5.55196 20.0221 4.99995C20.0221 4.44796 20.4806 3.99993 21.0332 3.99993C21.5858 3.99993 22.0344 4.44796 22.0344 4.99995C22.0343 5.55205 21.5878 5.99999 21.0332 5.99999ZM21.0132 2.00006H21.0332C21.5878 2.00006 22.0344 1.55203 22.0344 1.00003C22.0344 0.448032 21.5858 0 21.0332 0C20.4806 0 20.0221 0.448032 20.0221 1.00003C20.0221 1.55203 20.4606 2.00006 21.0132 2.00006ZM25.038 22H25.018C24.4654 22 24.0269 21.552 24.0269 21C24.0269 20.448 24.4854 19.9999 25.038 19.9999C25.5906 19.9999 26.0392 20.448 26.0392 21C26.0392 21.552 25.5927 22 25.038 22ZM25.018 18H25.038C25.5927 18 26.0392 17.5521 26.0392 17.0001C26.0392 16.4481 25.5906 16 25.038 16C24.4854 16 24.0269 16.448 24.0269 17C24.0269 17.552 24.4654 18 25.018 18ZM25.038 14H25.018C24.4654 14 24.0269 13.552 24.0269 13C24.0269 12.448 24.4854 12 25.038 12C25.5906 12 26.0392 12.448 26.0392 13C26.0392 13.552 25.5927 14 25.038 14ZM25.018 10H25.038C25.5927 10 26.0392 9.55198 26.0392 8.99997C26.0392 8.44798 25.5906 7.99994 25.038 7.99994C24.4854 7.99994 24.0269 8.44798 24.0269 8.99997C24.0269 9.55198 24.4654 10 25.018 10ZM25.038 5.99999H25.018C24.4654 5.99999 24.0269 5.55196 24.0269 4.99995C24.0269 4.44796 24.4854 3.99993 25.038 3.99993C25.5906 3.99993 26.0392 4.44796 26.0392 4.99995C26.0392 5.55205 25.5927 5.99999 25.038 5.99999ZM25.018 2.00006H25.038C25.5927 2.00006 26.0392 1.55203 26.0392 1.00003C26.0392 0.448032 25.5906 0 25.038 0C24.4854 0 24.0269 0.448032 24.0269 1.00003C24.0269 1.55203 24.4654 2.00006 25.018 2.00006ZM17.0289 22H17.0089C16.4563 22 16.0178 21.552 16.0178 21C16.0178 20.448 16.4763 19.9999 17.0289 19.9999C17.5815 19.9999 18.03 20.448 18.03 21C18.03 21.552 17.5835 22 17.0289 22ZM17.0089 18H17.0289C17.5835 18 18.03 17.5521 18.03 17.0001C18.03 16.4481 17.5815 16 17.0289 16C16.4763 16 16.0178 16.448 16.0178 17C16.0178 17.552 16.4563 18 17.0089 18ZM17.0289 14H17.0089C16.4563 14 16.0178 13.552 16.0178 13C16.0178 12.448 16.4763 12 17.0289 12C17.5815 12 18.03 12.448 18.03 13C18.03 13.552 17.5835 14 17.0289 14ZM17.0089 10H17.0289C17.5835 10 18.03 9.55198 18.03 8.99997C18.03 8.44798 17.5815 7.99994 17.0289 7.99994C16.4763 7.99994 16.0178 8.44798 16.0178 8.99997C16.0178 9.55198 16.4563 10 17.0089 10ZM17.0289 5.99999H17.0089C16.4563 5.99999 16.0178 5.55196 16.0178 4.99995C16.0178 4.44796 16.4763 3.99993 17.0289 3.99993C17.5815 3.99993 18.03 4.44796 18.03 4.99995C18.03 5.55205 17.5835 5.99999 17.0289 5.99999ZM17.0089 2.00006H17.0289C17.5835 2.00006 18.03 1.55203 18.03 1.00003C18.03 0.448032 17.5815 0 17.0289 0C16.4763 0 16.0178 0.448032 16.0178 1.00003C16.0178 1.55203 16.4563 2.00006 17.0089 2.00006Z" fill="white"/>
</svg>
