<svg width="42" height="42" viewBox="0 0 42 42" fill="none" xmlns="http://www.w3.org/2000/svg">
<path d="M24.1109 21.137H23.7392V20.5793L24.1109 20.7652L41.2105 13.1447C41.2105 13.1447 41.3964 12.9589 41.3964 12.5872L39.166 8.86985H38.6084C36.9356 9.61326 24.2967 17.7914 22.6239 18.5348L22.438 18.9066L22.0663 18.7207L22.438 18.349C22.438 16.6762 23.7392 2.73621 23.7392 1.06343C23.7392 1.06343 23.7392 0.691694 23.3674 0.505859H18.7207C18.5349 0.691694 18.349 1.06343 18.349 1.06343C18.349 2.73621 19.6501 16.6762 19.6501 18.349L20.0218 18.7207L19.6501 18.9066L19.2784 18.5348C17.7914 17.7914 5.33838 9.61326 3.6656 8.86985H2.73629L0.505859 12.5872C0.505859 12.9589 0.877598 13.1447 0.877598 13.1447L17.9773 20.7652L18.349 20.5793V21.137H17.9773L0.877598 28.5716C0.877598 28.5716 0.505859 28.7574 0.505859 29.1292L2.73629 32.8465H3.6656C5.33838 32.1031 17.7914 23.925 19.2784 23.1815L19.6501 22.8098L20.0218 22.9956L19.6501 23.3673C19.6501 25.0401 18.349 38.9801 18.349 40.6529C18.349 40.6529 18.5349 41.0246 18.7207 41.2105H23.3674C23.7392 41.0246 23.7392 40.6529 23.7392 40.6529C23.7392 38.9801 22.438 25.0401 22.438 23.3673L22.0663 22.9956L22.438 22.8098L22.6239 23.1815C24.2967 23.925 36.9356 32.1031 38.6084 32.8465H39.166L41.3964 29.1292C41.3964 28.7574 41.2105 28.5716 41.2105 28.5716L24.1109 21.137Z" fill="white"/>
</svg>
