<svg width="40" height="30" viewBox="0 0 40 30" fill="none" xmlns="http://www.w3.org/2000/svg">
<path d="M14.6875 2.63969e-05C12.1513 -0.00235456 10.5106 0.803688 9.09226 1.51788C7.67397 2.23208 6.47587 2.85717 4.28571 2.85717H3.33333V3.80955V5.71431H0.952381H0V6.66669V28.5715V29.5238H0.952381H39.0476H40V28.5715V6.66669V5.71431H39.0476H36.6667V3.80955V2.85717H35.7143C33.524 2.85717 32.326 2.23184 30.9077 1.51788C29.4895 0.803926 27.8486 -0.0016736 25.3125 2.63969e-05C23.3753 -0.00473551 21.8094 0.634536 20 2.11312C18.1904 0.634712 16.6239 -0.00304503 14.6875 2.63969e-05ZM14.6875 1.90479C16.3847 1.90209 17.3216 2.26226 19.0476 3.76491V22.8423C17.6176 21.87 16.2778 21.4248 14.6875 21.4286C12.1514 21.4286 10.5105 22.2325 9.09226 22.9465C7.90319 23.5451 6.83106 24.0562 5.2381 24.2113V4.68753C7.26374 4.5119 8.71042 3.8486 9.94048 3.22919C11.3615 2.51363 12.5393 1.9026 14.6875 1.90479ZM25.3125 1.90479C27.4608 1.90336 28.6384 2.51379 30.0595 3.22919C31.2896 3.84845 32.7363 4.512 34.7619 4.68753V24.2113C33.169 24.0561 32.0969 23.5453 30.9077 22.9465C29.4894 22.2323 27.8487 21.426 25.3125 21.4286C23.7222 21.4247 22.3824 21.87 20.9524 22.8423V3.76491C22.6786 2.26198 23.6161 1.90071 25.3125 1.90479ZM1.90476 7.61907H3.33333V25.2381V26.1905H4.28571C6.85735 26.1905 8.51939 25.3732 9.94048 24.6578C11.3616 23.9424 12.5392 23.3319 14.6875 23.3334C16.4871 23.3286 17.4195 23.714 19.3601 25.4613L20 26.0417L20.6399 25.4613C22.5805 23.714 23.5129 23.329 25.3125 23.3334C27.4607 23.3334 28.6385 23.9422 30.0595 24.6578C31.4805 25.3733 33.1425 26.1905 35.7143 26.1905H36.6667V25.2381V7.61907H38.0952V27.6191H1.90476V7.61907Z" fill="white"/>
</svg>
