<svg width="180" height="80" viewBox="0 0 180 80" fill="none" xmlns="http://www.w3.org/2000/svg">
<path d="M18.3453 79.2392L20.1521 71.3062L19.9215 71.2548L19.5121 73.054C19.2062 74.3981 19.0384 74.5463 17.8139 74.2711L2.86208 70.9113C2.3012 70.7858 1.778 70.9612 1.39742 71.2225L1.37155 71.2167L1.88515 68.9602C2.49629 66.2743 3.94321 64.2813 6.73287 64.7482L8.54782 65.0227L8.6631 64.5162L1.06635 63.3681L1.03458 63.6273L2.79262 63.9165L2.78671 63.9414C2.56206 64.1037 2.48742 64.1939 2.38396 64.6505L0 75.1174L0.229823 75.1696L0.449303 74.2065C0.755242 72.8632 0.917816 72.7391 2.14231 73.0144L17.3232 76.4255C18.5477 76.7008 18.6408 76.8814 18.3349 78.2247L18.1154 79.1878L18.3453 79.2392ZM4.813 58.022L5.02804 58.1182L5.28669 57.55C6.11657 55.7273 6.3087 55.5563 7.97732 56.3058L12.8154 58.4801C17.5486 60.6345 19.6643 64.7511 20.3169 67.3548L22.6033 66.5561C22.0668 64.205 18.9091 60.4194 12.5457 57.5603L6.72992 54.947L9.51145 48.839L24.5276 55.5857C25.6715 56.0995 25.9398 56.3909 25.3796 57.6227L25.056 58.3325L25.271 58.4294L28.1922 52.013L27.9772 51.9169L27.5574 52.8396C26.9854 54.0948 26.5982 54.064 25.4543 53.5494L11.7011 47.3709C10.5571 46.8563 10.2778 46.5883 10.8498 45.3331L11.2702 44.4104L11.0552 44.3135L4.813 58.022ZM28.6452 51.2635L32.1059 47.3664L31.9292 47.2116L30.9952 48.2635C30.4239 48.9065 29.764 49.0217 29.3132 48.6261C29.1758 48.5057 29.0709 48.3097 28.9659 48.1145L27.5545 44.8325L35.1002 36.3365L38.8432 37.5037C39.3146 37.6402 39.996 37.8553 40.3537 37.649L40.3928 37.6828L38.9385 39.3197L39.1151 39.4746L42.7494 35.383L42.5728 35.2281L42.4169 35.4035C41.7422 36.1633 41.3986 36.0011 40.0765 35.6047L24.2556 30.7144C23.9164 30.6248 23.3371 30.2563 22.9447 29.9128L22.7097 29.7058L21.2384 31.3625L28.6023 48.5233C28.9748 49.4387 29.2475 50.2315 28.762 50.7776L28.4686 51.1087L28.6452 51.2635ZM27.3564 44.348L22.638 33.2821C22.3993 32.7264 22.1961 32.4446 22.0786 32.3418L22.2515 32.1465C22.4673 32.3359 22.74 32.5392 23.1922 32.6589L34.6081 36.1838L27.3564 44.348ZM46.9831 32.3065L46.955 32.2625C47.0777 31.8191 46.9668 31.3978 46.6483 30.8906L38.6518 18.1738C38.3333 17.6673 37.9867 17.3612 37.5315 17.276L37.5174 17.254L39.4927 16.0288C41.9329 14.5145 44.2791 14.7134 45.4016 16.4986C46.4968 18.2398 45.7194 20.4376 43.5675 21.7728L42.5905 22.3784L42.8263 22.7535L44.1129 21.9549C47.153 20.0691 50.5191 20.6152 52.1818 23.26C53.7618 25.772 52.7959 28.7001 49.7565 30.5859L46.9831 32.3065ZM43.5934 34.9609L50.4496 30.7078C54.2214 28.3669 56.0216 24.7076 54.2894 21.952C52.8757 19.7043 49.2244 18.7522 45.9492 20.5095L45.8938 20.4207C47.9548 18.7441 48.2489 16.4172 47.459 15.1605C46.1983 13.155 43.0369 13.2783 39.5762 15.4255L33.6296 19.1148L33.7545 19.313L34.5977 18.7904C35.7734 18.0607 35.9767 18.0879 36.6417 19.1457L44.8733 32.2368C45.5384 33.2946 45.4741 33.4876 44.2983 34.2173L43.4552 34.7407L43.5934 34.9609ZM57.4352 25.9364L62.4012 24.3031L62.3273 24.0807L60.9868 24.5211C60.1673 24.7913 59.5391 24.56 59.3499 23.9926C59.2923 23.8201 59.3012 23.5984 59.3093 23.3768L59.7556 19.8357L70.5825 16.274L73.2236 19.1559C73.5621 19.5105 74.0417 20.0368 74.4548 20.0375L74.471 20.0867L72.3849 20.7723L72.4588 20.9947L77.6745 19.28L77.5999 19.0576L77.3767 19.131C76.4079 19.4496 76.1936 19.1376 75.2529 18.1327L64.0684 5.9899C63.8208 5.74252 63.5075 5.13472 63.3434 4.64144L63.2444 4.34488L61.1331 5.0393L58.7883 23.5478C58.6457 24.5256 58.4787 25.3462 57.7826 25.5753L57.3613 25.714L57.4352 25.9364ZM59.8303 19.3182L61.3689 7.39855C61.4442 6.7981 61.4117 6.45309 61.3622 6.30554L61.6105 6.22406C61.7014 6.49493 61.8329 6.8069 62.1633 7.13723L70.2359 15.896L59.8303 19.3182ZM90.6148 18.474L90.6185 18.4226C90.9806 18.1356 91.141 17.7304 91.1846 17.1343L92.2665 2.17942C92.3093 1.58336 92.2111 1.13265 91.8933 0.798653L91.8955 0.772229L94.2181 0.937391C97.0883 1.14293 98.8656 2.67637 98.7141 4.77577C98.5656 6.82379 96.6339 8.14435 94.1028 7.96377L92.9545 7.88156L92.9227 8.32273L94.4361 8.43063C98.0106 8.68535 100.406 11.0967 100.182 14.2069C99.9682 17.1615 97.4512 18.9621 93.8767 18.7074L90.6148 18.474ZM86.3021 18.6355L94.3644 19.211C98.8006 19.5274 102.426 17.624 102.66 14.3838C102.852 11.7405 100.465 8.83437 96.7772 8.33742L96.7846 8.23318C99.4442 8.08416 101.063 6.37601 101.17 4.89909C101.34 2.54057 98.7134 0.789848 94.6431 0.499162L87.65 0L87.633 0.233434L88.6248 0.304635C90.0074 0.402999 90.1552 0.543934 90.065 1.78816L88.9514 17.1835C88.8612 18.427 88.695 18.5459 87.3123 18.4468L86.3214 18.3764L86.3021 18.6355ZM104.737 20.4442L114.007 23.0237L114.07 22.7983L112.005 22.2236C110.669 21.8521 110.578 21.6921 110.918 20.4912L115.428 4.50271L117.039 4.95121C119.684 5.68674 120.431 6.40831 119.955 8.86593L119.741 9.91343L120.252 10.0279L121.48 4.1364L121.17 4.07695L120.894 5.53846L107.997 1.94892L108.533 0.532925L108.237 0.423552L106.172 6.10882L106.669 6.27471L107.059 5.2764C107.862 2.9098 108.928 2.69326 111.598 3.43686L113.261 3.89931L108.751 19.8878C108.412 21.0887 108.251 21.179 106.916 20.8076L104.8 20.2188L104.737 20.4442ZM126.784 29.3182C132.283 32.4857 137.901 31.306 140.801 26.3372C143.687 21.3919 141.927 15.9628 136.428 12.7961C130.884 9.60293 125.266 10.7833 122.38 15.7286C119.48 20.6974 121.24 26.1258 126.784 29.3182ZM127.111 28.9666C122.449 26.2814 121.652 21.9483 124.788 16.575C127.609 11.742 131.575 10.5418 136.101 13.1484C140.718 15.8072 141.515 20.141 138.379 25.5136C135.558 30.3466 131.614 31.56 127.111 28.9666ZM152.651 25.8659L154.15 27.3157C156.756 29.8357 156.865 32.4798 154.475 34.9191C152.085 37.3576 149.42 37.3202 146.815 34.8001L145.653 33.677L151.766 27.4398C152.186 27.0111 152.512 26.4928 152.559 25.9592L152.651 25.8659ZM136.804 35.9262L141.846 40.8018L142.01 40.6344L141.504 40.1448C140.51 39.1839 140.471 38.9644 141.347 38.0711L145.325 34.0118L147.106 35.7339C150.217 38.7428 153.884 39.098 156.275 36.6595C158.683 34.2019 158.227 30.569 155.116 27.5609L149.924 22.5392L149.759 22.7073L150.472 23.3958C151.465 24.3567 151.486 24.5586 150.611 25.4519L139.754 36.5303C138.878 37.4237 138.674 37.4075 137.681 36.4474L136.968 35.7581L136.804 35.9262ZM146.22 44.7253L148.992 49.1319L149.192 49.0078L148.443 47.8179C147.986 47.0912 148.063 46.4298 148.573 46.1134C148.729 46.0173 148.948 45.9732 149.167 45.9284L152.736 45.5218L158.779 55.1298L156.585 58.3604C156.319 58.7707 155.917 59.3573 156.014 59.7573L155.971 59.7845L154.806 57.9332L154.606 58.0572L157.517 62.6847L157.717 62.5607L157.592 62.3617C157.052 61.5029 157.307 61.2218 158.066 60.0759L167.299 46.41C167.482 46.1127 168.003 45.6664 168.447 45.3911L168.713 45.2259L167.535 43.3526L148.876 45.466C147.886 45.5592 147.044 45.5922 146.655 44.9749L146.42 44.6005L146.22 44.7253ZM153.26 45.4718L165.283 44.1373C165.888 44.0683 166.217 43.9553 166.35 43.8731L166.489 44.0933C166.245 44.2445 165.971 44.4464 165.727 44.8428L159.068 54.7048L153.26 45.4718ZM160.042 72.8316L161.882 79.3896L162.108 79.3272L161.835 78.351C161.463 77.0238 161.554 76.8637 162.763 76.529L177.757 72.3816C178.966 72.0469 179.127 72.1372 179.5 73.4643L179.773 74.4399L180 74.3775L177.986 67.1933C176.751 62.7875 174.113 60.0641 170.762 60.9913C167.41 61.9191 166.57 65.6041 167.805 70.0099C163.665 71.1278 160.866 70.1493 160.023 67.1449C159.722 66.0687 159.799 64.699 160.309 63.1281L158.318 63.6786C157.895 64.6858 157.862 65.828 158.178 66.9547C159.147 70.4092 163.043 71.8127 167.946 70.5105L168.535 72.6128L162.159 74.3768C160.95 74.7115 160.782 74.5963 160.41 73.2698L160.27 72.7692L160.042 72.8316ZM168.988 72.4873L168.322 70.1097C167.374 66.7301 168.084 64.3224 171.436 63.3953C174.787 62.4682 176.648 64.1646 177.596 67.5442L178.396 70.3982L178.371 70.4048C177.977 70.1633 177.507 70.131 176.927 70.2917L168.988 72.4873Z" fill="#FEFEFE"/>
</svg>
