<svg width="180" height="100" viewBox="0 0 180 100" fill="none" xmlns="http://www.w3.org/2000/svg">
<path d="M20.712 98.4876L20.0961 90.5742L19.8668 90.5921L20.0067 92.3866C20.1113 93.7275 19.9973 93.9138 18.7757 94.0069L3.86101 95.1523C3.3014 95.1953 2.86438 95.5091 2.5853 95.8615L2.55934 95.8629L2.3841 93.6129C2.17569 90.9331 2.94659 88.6609 5.68333 88.2984L7.45518 88.0355L7.41552 87.5298L0 88.633L0.0454324 88.8837L1.76825 88.6501L1.76969 88.6752C1.60743 88.8908 1.56416 88.9961 1.5995 89.451L2.41223 99.893L2.64155 99.8751L2.56727 98.9145C2.46271 97.575 2.57809 97.4131 3.79971 97.3192L18.943 96.1566C20.1646 96.0628 20.3038 96.2046 20.4084 97.5449L20.4826 98.5055L20.712 98.4876ZM1.93267 81.6924L2.1591 81.731L2.26439 81.1315C2.60117 79.2081 2.74035 79.0004 4.50138 79.3048L9.60635 80.1866C14.6075 81.0763 17.6175 84.4538 18.873 86.7554L20.8374 85.4474C19.7528 83.3557 15.8406 80.5434 9.12607 79.3829L2.98842 78.3227L4.11773 71.8771L19.9627 74.615C21.1699 74.8234 21.4951 75.034 21.2672 76.3335L21.136 77.0828L21.3632 77.1221L22.5487 70.3521L22.3216 70.3127L22.1514 71.2869C21.9192 72.6114 21.5456 72.6751 20.3384 72.4667L5.82684 69.9595C4.61965 69.751 4.28936 69.5648 4.52157 68.2403L4.69176 67.2668L4.46532 67.2274L1.93267 81.6924ZM22.4917 69.5003L24.596 64.88L24.3862 64.7861L23.8187 66.0333C23.4711 66.7955 22.8891 67.0906 22.354 66.8506C22.191 66.7775 22.0367 66.6242 21.8824 66.4717L19.6187 63.8126L24.2052 53.7388L28.0337 53.7617C28.5133 53.7546 29.2106 53.761 29.4847 53.4666L29.5308 53.4874L28.6474 55.4286L28.8566 55.5232L31.0661 50.6707L30.8563 50.5769L30.7618 50.7846C30.3515 51.6858 29.9844 51.6321 28.6359 51.6392L12.4679 51.5826C12.1253 51.5955 11.4784 51.4164 11.0133 51.2073L10.7342 51.0819L9.84 53.0461L21.6617 66.9566C22.2732 67.7045 22.7557 68.3664 22.4607 69.0139L22.2826 69.4065L22.4917 69.5003ZM19.2949 63.4165L11.6998 54.4379C11.3162 53.9874 11.0458 53.7825 10.9059 53.7202L11.0111 53.4888C11.2671 53.6034 11.5801 53.7159 12.0366 53.6987L23.7025 53.7359L19.2949 63.4165ZM34.1887 46.6256L34.1505 46.5919C34.1404 46.1428 33.919 45.7796 33.4784 45.3935L22.4326 35.7136C21.9927 35.3275 21.5824 35.1377 21.1338 35.1843L21.1144 35.1671L22.6172 33.4744C24.4749 31.3827 26.7249 30.9199 28.2753 32.2781C29.7883 33.604 29.6779 35.8741 28.0395 37.7187L27.296 38.5561L27.622 38.8412L28.6013 37.738C30.9147 35.1334 34.2161 34.7122 36.5129 36.7251C38.6951 38.6377 38.6136 41.6427 36.3002 44.2481L34.1887 46.6256ZM31.7635 50.0454L36.9824 44.17C39.8533 40.9372 40.511 37.0159 38.1175 34.9192C36.1654 33.2079 32.4832 33.3282 29.913 35.8777L29.8359 35.8103C31.2933 33.6721 30.9154 31.4142 29.8243 30.4579C28.0828 28.9314 25.1607 29.9213 22.5264 32.8877L17.9997 37.9837L18.1728 38.1349L18.8139 37.4121C19.7096 36.4042 19.9064 36.3741 20.8252 37.1793L32.1962 47.1442C33.1149 47.9494 33.1091 48.1478 32.2142 49.155L31.5724 49.8777L31.7635 50.0454ZM42.1472 37.7359L46.3421 34.8462L46.2116 34.6585L45.0787 35.4386C44.3864 35.9156 43.7345 35.8712 43.3999 35.392C43.2982 35.2459 43.2448 35.036 43.1915 34.8261L42.6254 31.3898L51.7716 25.0897L55.0442 27.0632C55.4588 27.3017 56.0538 27.6635 56.441 27.551L56.4699 27.5925L54.7074 28.806L54.8386 28.9944L59.2441 25.9593L59.1129 25.7716L58.9239 25.902C58.1061 26.465 57.8184 26.2322 56.6588 25.5495L42.8172 17.2479C42.5172 17.0839 42.0549 16.6004 41.7643 16.1835L41.5898 15.9335L39.8064 17.162L42.7508 35.1298C42.8886 36.0833 42.96 36.8977 42.3722 37.3032L42.016 37.5482L42.1472 37.7359ZM42.5518 30.8848L40.6819 19.3053C40.586 18.7229 40.4598 18.4091 40.3725 18.2845L40.5823 18.1398C40.7417 18.369 40.9523 18.6247 41.3533 18.8432L51.3411 24.8303L42.5518 30.8848ZM75.0213 21.1513L81.9919 19.5789L81.9407 19.3561L80.9945 19.5696C79.6748 19.8669 79.4779 19.8081 79.2068 18.6211L75.8427 3.90761C75.5715 2.72064 75.7229 2.5831 77.0426 2.2851L77.9888 2.07164L77.9268 1.79944L70.9562 3.37179L71.0074 3.59457L71.9528 3.3811C73.2725 3.08382 73.4449 3.1483 73.716 4.33527L75.5874 12.5208L71.7285 13.3912C70.1608 13.745 69.0617 12.7185 68.5353 10.4191L67.3317 5.15188C67.2409 4.75575 67.1745 4.69271 66.9358 4.56521L66.9243 4.51578L68.7668 4.10031L68.7156 3.87753L63.0157 5.16335L63.0662 5.38613L63.7635 5.22925C65.0825 4.93126 65.2599 5.02151 65.531 6.20848L66.6394 11.0545C67.1933 13.4779 68.9363 14.4628 71.6261 13.8561L75.6833 12.9406L77.091 19.0982C77.3628 20.2852 77.2352 20.4177 75.9162 20.715L74.9701 20.9285L75.0213 21.1513ZM91.9386 14.0595L91.71 5.92266L91.4547 5.92982L91.4799 6.81736C91.5484 9.25076 90.1004 9.54446 88.5182 9.58815L87.3961 9.61895L87.2093 2.9778C87.1942 2.4205 86.9 1.97135 86.5596 1.67694L86.5589 1.65115L90.5143 1.54156C93.2193 1.46706 94.6998 2.36462 94.9558 5.09744L95.1073 6.86895L95.6179 6.85461L94.9147 0L94.6602 0.0315146L94.795 1.19556L94.7438 1.19699C94.5599 1.02436 94.1511 0.984955 93.7169 0.996417L82.5147 1.3066L82.5212 1.5351L83.4904 1.5086C84.8425 1.47063 84.9997 1.59313 85.0344 2.81018L85.4569 17.8912C85.4916 19.1083 85.3416 19.2393 83.9887 19.2766L83.0195 19.3031L83.026 19.5316L95.734 19.1799C96.1933 19.1677 96.5741 19.1061 96.7731 18.9227L96.7984 18.922L96.7551 20.0904L96.9859 20.109L97.2772 13.2264L96.8438 13.2386L96.7219 15.2716C96.5863 17.7107 95.3381 18.7343 92.633 18.8095L87.0449 18.9643L87.0442 18.9385C87.3673 18.6254 87.6355 18.1605 87.6197 17.604L87.4084 10.0753L88.5312 10.0445C90.1134 10 91.5759 10.2393 91.6444 12.6727L91.6833 14.0667L91.9386 14.0595ZM100.601 19.7501L109.764 21.8088L109.815 21.5861L107.773 21.1269C106.453 20.8303 106.357 20.6792 106.628 19.4915L110.226 3.6877L111.819 4.04515C114.434 4.63326 115.198 5.29874 114.857 7.7178L114.7 8.74933L115.204 8.836L116.107 3.03296L115.802 2.9907L115.606 4.42838L102.857 1.56448L103.309 0.15759L103.015 0.0658973L101.285 5.70848L101.778 5.8453L102.109 4.85389C102.774 2.50718 103.802 2.24428 106.441 2.83741L108.084 3.20632L104.486 19.0108C104.215 20.1978 104.062 20.2931 102.743 19.9972L100.652 19.5273L100.601 19.7501ZM117.131 23.763L117.152 23.7172C117.581 23.5753 117.866 23.2587 118.107 22.7272L124.179 9.39617C124.421 8.86465 124.484 8.41981 124.307 8.00649L124.317 7.98356L126.388 8.91336C128.946 10.0638 130.052 12.0638 129.201 13.9349C128.369 15.7608 126.152 16.3224 123.895 15.3088L122.872 14.8482L122.693 15.2415L124.042 15.8475C127.228 17.2795 128.603 20.2909 127.34 23.0631C126.141 25.6964 123.225 26.5016 120.038 25.0696L117.131 23.763ZM113.127 22.465L120.314 25.6942C124.268 27.4715 128.234 26.9443 129.55 24.056C130.623 21.6992 129.426 18.2386 126.217 16.5466L126.26 16.4542C128.745 17.2092 130.807 16.1885 131.407 14.8711C132.365 12.7687 130.554 10.2851 126.926 8.65477L120.693 5.85389L120.598 6.06163L121.482 6.45919C122.714 7.01292 122.801 7.1913 122.297 8.30018L116.046 22.0237C115.542 23.1319 115.349 23.1849 114.116 22.6312L113.233 22.2336L113.127 22.465ZM138.691 30.8748L143.806 24.5152L143.606 24.3569L143.049 25.0503C141.519 26.9521 140.223 26.248 138.986 25.2666L138.109 24.5703L142.284 19.3797C142.634 18.9442 142.701 18.4127 142.634 17.97L142.649 17.9499L145.741 20.4034C147.855 22.0803 148.402 23.7164 146.821 25.9665L145.785 27.4163L146.184 27.7329L150.103 22.0474L149.888 21.9091L149.235 22.8841L149.195 22.8525C149.166 22.6025 148.879 22.3096 148.54 22.0409L139.785 15.0925L139.642 15.2708L140.399 15.8726C141.456 16.7114 141.496 16.9055 140.732 17.8561L131.251 29.6434C130.487 30.5947 130.287 30.5983 129.23 29.7595L128.472 29.1584L128.328 29.3368L138.261 37.2194C138.62 37.5038 138.951 37.7015 139.222 37.6893L139.241 37.7051L138.449 38.5697L138.612 38.7316L143.309 33.6635L142.97 33.3949L141.556 34.8684C139.867 36.6434 138.248 36.6255 136.134 34.9472L131.766 31.4808L131.782 31.4608C132.232 31.4292 132.739 31.2466 133.089 30.811L137.822 24.9271L138.7 25.6233C139.936 26.6047 140.898 27.7251 139.368 29.6269L138.491 30.7165L138.691 30.8748ZM156.807 30.6828L158.126 32.2315C160.418 34.9221 160.274 37.5009 157.721 39.647C155.168 41.7925 152.585 41.5066 150.292 38.8161L149.27 37.6162L155.799 32.1284C156.247 31.7523 156.612 31.2788 156.71 30.7645L156.807 30.6828ZM140.461 38.9737L144.897 44.1807L145.073 44.0332L144.628 43.5109C143.753 42.4844 143.736 42.2681 144.671 41.4816L148.92 37.9106L150.486 39.7495C153.224 42.963 156.752 43.6514 159.305 41.5052C161.877 39.3433 161.778 35.7724 159.041 32.5589L154.473 27.1971L154.297 27.3447L154.924 28.0804C155.798 29.1062 155.799 29.3046 154.864 30.0904L143.27 39.8362C142.334 40.6227 142.137 40.5876 141.264 39.5618L140.637 38.8261L140.461 38.9737ZM151.288 52.8813L155.881 61.0211L156.082 60.9093L155.058 59.0956C154.397 57.9236 154.446 57.751 155.515 57.1557L169.743 49.233L170.543 50.6478C171.853 52.9709 171.867 53.9809 169.829 55.3477L168.953 55.9222L169.225 56.352L174.169 53.1342L173.997 52.8813L172.79 53.6987L166.4 42.3734L167.754 41.7652L167.625 41.4873L162.248 43.9873L162.474 44.4422L163.438 44.0224C165.638 42.9429 166.524 43.526 167.846 45.8706L168.67 47.3297L154.441 55.2531C153.372 55.8477 153.198 55.7997 152.537 54.6271L151.488 52.7696L151.288 52.8813ZM156.611 61.9759L157.98 66.8613L158.202 66.7998L157.832 65.481C157.606 64.6751 157.862 64.0777 158.427 63.9215C158.6 63.8735 158.817 63.8921 159.035 63.9115L162.488 64.5089L165.474 75.1594L162.523 77.5813C162.159 77.8929 161.62 78.332 161.6 78.7325L161.551 78.7461L160.976 76.6938L160.754 76.7547L162.192 81.8851L162.414 81.8235L162.352 81.6035C162.085 80.6508 162.402 80.4581 163.431 79.5935L175.872 69.3349C176.126 69.1071 176.738 68.832 177.23 68.6959L177.525 68.6142L176.943 66.5383L158.89 63.3986C157.938 63.2145 157.14 63.0139 156.948 62.3298L156.832 61.9151L156.611 61.9759ZM162.992 64.6063L174.616 66.6551C175.202 66.7561 175.542 66.741 175.689 66.7002L175.758 66.9445C175.487 67.0197 175.175 67.1328 174.835 67.4366L165.862 74.8413L162.992 64.6063ZM161.632 92.0857L161.487 98.7276L161.717 98.7326L161.739 97.744C161.768 96.3995 161.898 96.2755 163.123 96.302L178.309 96.6294C179.534 96.6559 179.658 96.7856 179.629 98.1294L179.607 99.118L179.837 99.123L179.996 91.8471C180.094 87.3851 178.404 84.1021 175.009 84.0291C171.615 83.956 169.783 87.163 169.686 91.6251C165.5 91.509 163.163 89.8099 163.229 86.7676C163.253 85.6774 163.715 84.4195 164.638 83.095L162.621 83.052C161.939 83.8736 161.584 84.9316 161.559 86.0728C161.483 89.5706 164.724 91.9746 169.674 92.1322L169.628 94.2612L163.171 94.1222C161.946 94.0957 161.822 93.941 161.851 92.5979L161.862 92.0907L161.632 92.0857ZM170.087 94.2712L170.14 91.8629C170.214 88.4402 171.561 86.3901 174.956 86.4632C178.35 86.5362 179.607 88.643 179.532 92.0656L179.469 94.9561L179.443 94.9553C179.144 94.6194 178.714 94.4575 178.127 94.4446L170.087 94.2712Z" fill="#FEFEFE"/>
</svg>
