<svg width="180" height="83" viewBox="0 0 180 83" fill="none" xmlns="http://www.w3.org/2000/svg">
<path d="M18.3971 82.1281L19.7903 74.1727L19.56 74.1333L19.2437 75.9378C19.0082 77.2853 18.849 77.4406 17.6208 77.2285L2.62658 74.6376C2.06385 74.54 1.55394 74.7404 1.1893 75.0181L1.16362 75.0137L1.55981 72.7508C2.03157 70.0572 3.3654 68.0093 6.15559 68.3343L7.96925 68.5165L8.05803 68.0085L0.467355 67.2462L0.449013 67.505L2.20692 67.7047L2.20251 67.7294C1.98755 67.9022 1.91858 67.9947 1.83787 68.4524L0 78.9499L0.230377 78.9893L0.399857 78.0236C0.635369 76.6768 0.790176 76.5456 2.01836 76.7584L17.2423 79.3886C18.4704 79.6007 18.5717 79.7756 18.3362 81.1231L18.1667 82.0888L18.3971 82.1281ZM4.06313 60.8008L4.27663 60.8963L4.53342 60.3322C5.35734 58.5226 5.5481 58.3528 7.20476 59.0969L12.0082 61.2556C16.7074 63.3946 18.8079 67.4816 19.4558 70.0667L21.7258 69.2737C21.1931 66.9394 18.0581 63.181 11.7404 60.3424L5.9663 57.7479L8.72788 51.6836L23.6363 58.382C24.772 58.8921 25.0384 59.1814 24.4822 60.4044L24.1609 61.1091L24.3744 61.2053L27.2746 54.8349L27.0611 54.7395L26.6444 55.6556C26.0765 56.9018 25.6921 56.8712 24.5563 56.3603L10.9018 50.2261C9.76604 49.7152 9.48871 49.4492 10.0566 48.2029L10.474 47.2868L10.2605 47.1907L4.06313 60.8008ZM27.3531 53.9378L30.5953 49.9069L30.4118 49.7618L29.5373 50.8499C29.0024 51.5153 28.3539 51.6603 27.8872 51.2901C27.7449 51.1779 27.6312 50.9884 27.5175 50.7996L25.9577 47.6126L33.0259 38.8249L36.7949 39.8022C37.2688 39.9144 37.9548 40.0951 38.2997 39.8736L38.34 39.9049L36.9776 41.5986L37.161 41.7437L40.5653 37.5108L40.3826 37.3658L40.2366 37.5473C39.6041 38.3329 39.2556 38.1886 37.9247 37.8592L21.998 33.7722C21.6576 33.6993 21.0647 33.3618 20.659 33.0397L20.4154 32.8459L19.0376 34.5592L27.177 51.2223C27.5908 52.1122 27.8997 52.8854 27.4456 53.4502L27.1704 53.7928L27.3531 53.9378ZM25.7383 47.1418L20.5196 36.3958C20.2548 35.8558 20.0398 35.5861 19.9187 35.4899L20.0801 35.288C20.3032 35.4651 20.5834 35.6539 21.0383 35.7508L32.5307 38.6966L25.7383 47.1418ZM44.6585 34.3042L44.6291 34.2619C44.7289 33.8159 44.5991 33.4034 44.2586 32.9158L35.7193 20.6831C35.3789 20.1955 35.0208 19.9084 34.5652 19.8457L34.5505 19.8246L36.45 18.5157C38.7978 16.8985 41.1339 16.9852 42.3327 18.7022C43.5022 20.377 42.8367 22.5932 40.7663 24.0195L39.8265 24.6666L40.0788 25.0267L41.3166 24.1747C44.2403 22.1603 47.6042 22.5429 49.3805 25.0864C51.0672 27.5031 50.2506 30.4525 47.3261 32.4669L44.6585 34.3042ZM41.4251 37.0969L48.0195 32.5544C51.6483 30.0546 53.258 26.34 51.4083 23.6901C49.8984 21.5278 46.2315 20.7567 43.0678 22.6537L43.0084 22.5685C44.9718 20.8084 45.1522 18.4865 44.3085 17.2782C42.9622 15.3491 39.833 15.6202 36.5036 17.9137L30.7838 21.8535L30.9173 22.0445L31.7281 21.4862C32.8594 20.7071 33.0619 20.7246 33.7721 21.742L42.5631 34.3348C43.2733 35.3522 43.219 35.5468 42.0877 36.3258L41.2769 36.8848L41.4251 37.0969ZM54.74 27.5308L59.5867 25.6775L59.5023 25.4603L58.1942 25.961C57.3945 26.2663 56.7606 26.0674 56.5456 25.5135C56.4803 25.3451 56.4781 25.1243 56.4766 24.9042L56.7496 21.3718L67.3168 17.3299L70.074 20.0629C70.4261 20.3981 70.9265 20.8981 71.3366 20.8799L71.355 20.9272L69.319 21.7056L69.4026 21.9228L74.4929 19.9761L74.4085 19.759L74.1906 19.8428C73.2457 20.2043 73.0175 19.9047 72.0365 18.9529L60.3651 7.43804C60.1083 7.20483 59.7687 6.61596 59.5816 6.13423L59.4693 5.84563L57.4091 6.63345L55.9674 25.0988C55.8728 26.0747 55.7466 26.8967 55.0672 27.1569L54.6556 27.3143L54.74 27.5308ZM56.7994 20.8551L57.7554 8.96194C57.8017 8.36287 57.7532 8.02252 57.6967 7.87822L57.9396 7.78567C58.0416 8.05022 58.1876 8.3534 58.5309 8.66532L66.9543 16.9713L56.7994 20.8551ZM83.0528 18.5018L108.155 20.2932L108.172 20.0614L107.161 19.9893C105.814 19.8931 105.685 19.5221 105.774 18.2875L106.848 3.43917C106.938 2.20387 107.119 1.8555 108.466 1.9517L109.476 2.02385L109.493 1.79209L102.473 1.29069L102.456 1.52244L103.207 1.57637C104.58 1.67403 104.71 2.04499 104.621 3.28029L103.448 19.4922L96.7645 19.0149L97.937 2.80293C98.0265 1.56835 98.182 1.21781 99.5547 1.31547L100.332 1.37086L100.349 1.1391L93.5613 0.654453L93.5444 0.886212L94.3221 0.94233C95.6435 1.03634 95.7983 1.40875 95.7088 2.64405L94.5364 18.856L87.8525 18.3786L89.0249 2.16742C89.1144 0.932122 89.27 0.58158 90.6434 0.679238L91.3947 0.733168L91.4116 0.501408L84.391 0L84.3741 0.231759L85.3852 0.303909C86.7579 0.402296 86.887 0.77325 86.7975 2.00782L85.7234 16.8562C85.6346 18.0908 85.4534 18.4399 84.0799 18.3422L83.0696 18.2701L83.0528 18.5018ZM119.642 19.7619L122.691 12.0542L122.45 11.9602L122.118 12.8005C121.206 15.1049 119.732 14.8076 118.234 14.2224L117.17 13.8069L119.66 7.51602C119.868 6.98837 119.774 6.45126 119.573 6.04168L119.583 6.0169L123.329 7.47958C125.892 8.47948 126.918 9.90645 126.061 12.5651L125.493 14.2836L125.976 14.4723L128.067 7.77692L127.815 7.70623L127.476 8.84898L127.427 8.83003C127.325 8.59609 126.957 8.39713 126.545 8.23606L115.934 4.09435L115.849 4.31007L116.767 4.66864C118.048 5.16932 118.146 5.34568 117.69 6.4979L112.038 20.7844C111.582 21.9366 111.389 22 110.108 21.5001L109.19 21.1415L109.104 21.3579L121.142 26.0572C121.577 26.227 121.958 26.3203 122.219 26.2277L122.242 26.2372L121.733 27.3136L121.942 27.4222L124.975 21.0948L124.564 20.9345L123.635 22.7893C122.53 25.0187 120.95 25.4836 118.388 24.483L113.094 22.4169L113.104 22.3921C113.532 22.2274 113.969 21.8987 114.178 21.3711L116.999 14.2391L118.063 14.6545C119.562 15.239 120.835 16.0421 119.923 18.3466L119.401 19.6671L119.642 19.7619ZM129.85 19.6139C126.478 24.2593 127.495 29.6953 132.361 33.1811C134.783 34.9164 137.766 35.5271 140.191 34.0834L139.897 33.6497C137.8 34.8194 134.861 34.3683 132.67 32.7992C128.711 29.962 128.521 25.7234 132.152 20.7224C135.433 16.2025 139.24 15.239 143.052 17.9698C145.327 19.6001 146.518 22.6792 145.276 24.6528L143.927 26.6439L144.363 26.9252L148.543 20.7275L148.332 20.5767L147.265 22.1341C147.113 22.3433 146.967 22.5881 146.888 22.7856L146.71 22.7222C146.753 22.5306 146.791 22.3032 146.761 22.1224C146.214 20.3631 145.037 18.8524 143.478 17.7358C138.633 14.2646 133.171 14.9956 129.845 19.5782L129.85 19.6139ZM140.32 39.542L146.838 46.4852L147.01 46.327L145.557 44.7798C144.618 43.7799 144.625 43.5977 145.537 42.753L157.674 31.51L158.808 32.7176C160.668 34.6992 160.926 35.694 159.244 37.5334L158.519 38.3118L158.892 38.6711L162.996 34.3056L162.765 34.0965L161.771 35.1933L152.703 25.5332L153.893 24.6069L153.699 24.3635L148.991 28.124L149.326 28.519L150.176 27.8733C152.088 26.2787 153.105 26.6424 154.982 28.6422L156.151 29.887L144.013 41.13C143.101 41.974 142.918 41.9681 141.979 40.9682L140.491 39.3831L140.32 39.542ZM147.869 47.1987L150.408 51.6989L150.613 51.5853L149.927 50.3704C149.508 49.6285 149.617 48.9762 150.138 48.6861C150.296 48.5979 150.516 48.5644 150.734 48.5309L154.293 48.2948L159.83 58.1065L157.501 61.2075C157.217 61.6018 156.791 62.1651 156.868 62.5659L156.823 62.5907L155.756 60.7002L155.552 60.8139L158.218 65.5394L158.423 65.4257L158.309 65.2231C157.813 64.3456 158.079 64.0789 158.887 62.9784L168.693 49.8588C168.889 49.5723 169.427 49.1547 169.88 48.9026L170.152 48.751L169.073 46.8379L150.468 48.0586C149.482 48.1046 148.645 48.098 148.289 47.4676L148.073 47.085L147.869 47.1987ZM154.815 48.27L166.802 47.5106C167.405 47.4705 167.738 47.3743 167.873 47.2985L168.001 47.5237C167.751 47.6622 167.47 47.8488 167.208 48.2306L160.136 57.6991L154.815 48.27ZM160.284 75.7046L161.79 82.2958L162.018 82.244L161.794 81.2631C161.489 79.9294 161.588 79.7749 162.803 79.5009L177.872 76.1018C179.087 75.8277 179.243 75.9247 179.548 77.2591L179.772 78.2401L180 78.1883L178.35 70.9682C177.337 66.54 174.854 63.7138 171.486 64.4739C168.117 65.2333 167.106 68.8474 168.118 73.2762C163.958 74.1872 161.229 73.0831 160.539 70.0645C160.292 68.9822 160.435 67.6274 161.017 66.094L159.015 66.5459C158.547 67.5239 158.459 68.655 158.718 69.7875C159.512 73.2588 163.308 74.8373 168.233 73.7791L168.716 75.8919L162.308 77.3371C161.093 77.6111 160.932 77.4894 160.627 76.1564L160.512 75.6528L160.284 75.7046ZM169.172 75.7891L168.626 73.3994C167.849 70.0025 168.669 67.6493 172.037 66.8891C175.406 66.1297 177.169 67.9007 177.946 71.2969L178.602 74.1654L178.576 74.1712C178.197 73.9125 177.732 73.8586 177.15 73.9897L169.172 75.7891Z" fill="#FEFEFE"/>
</svg>
