<svg width="180" height="93" viewBox="0 0 180 93" fill="none" xmlns="http://www.w3.org/2000/svg">
<path d="M19.0741 92.1169L19.6485 84.1209L19.4185 84.1043L19.2882 85.918C19.1906 87.2724 19.0502 87.4417 17.8239 87.3534L2.85489 86.2776C2.29346 86.2378 1.81234 86.486 1.48243 86.7956L1.45638 86.7942L1.61989 84.5203C1.81451 81.8122 2.92 79.6577 5.68952 79.7033L7.48667 79.704L7.52357 79.1932L0 79.191L0.00795733 79.4486L1.75229 79.4718L1.75012 79.4971C1.55695 79.6881 1.49835 79.7872 1.46507 80.2466L0.706847 90.7972L0.936916 90.8139L1.0071 89.843C1.10404 88.4893 1.24295 88.3446 2.46927 88.4329L17.6684 89.5246C18.8939 89.6129 19.0104 89.7757 18.9135 91.1293L18.844 92.1003L19.0741 92.1169ZM2.31589 73.3568L2.538 73.419L2.7044 72.8265C3.23617 70.9281 3.39679 70.7334 5.12303 71.2175L10.1289 72.6203C15.0305 74.0195 17.6908 77.718 18.7095 80.1576L20.804 79.042C19.9343 76.8303 16.3154 73.6086 9.73094 71.7637L3.71367 70.078L5.49635 63.7156L21.0333 68.0688C22.2169 68.4002 22.5201 68.6447 22.1605 69.9267L21.9536 70.6669L22.1757 70.7291L24.0481 64.0462L23.826 63.984L23.5568 64.9455C23.19 66.2529 22.8109 66.2796 21.6273 65.9475L7.39696 61.9611C6.21333 61.629 5.90368 61.4091 6.26976 60.1017L6.5389 59.1402L6.31679 59.078L2.31589 73.3568ZM24.0929 63.1932L26.6606 58.7618L26.4609 58.6461L25.7678 59.8427C25.3446 60.5735 24.7332 60.8115 24.2239 60.5163C24.0683 60.4259 23.9294 60.2573 23.7912 60.088L21.8009 57.1883L27.4 47.5268L31.2193 47.9348C31.6983 47.9761 32.3943 48.0527 32.6974 47.7851L32.7415 47.8104L31.6621 49.6719L31.8618 49.7877L34.5589 45.1342L34.3593 45.0184L34.2435 45.2181C33.7429 46.082 33.3811 45.9915 32.0354 45.8628L15.9016 44.1785C15.5587 44.1575 14.9314 43.9122 14.4879 43.6554L14.2216 43.5013L13.1306 45.3845L23.5214 60.5532C24.056 61.3664 24.4713 62.0805 24.111 62.7013L23.8933 63.0775L24.0929 63.1932ZM21.5173 56.7578L14.846 46.9711C14.5089 46.4799 14.2593 46.2462 14.1261 46.1695L14.2549 45.9481C14.498 46.0892 14.7997 46.2332 15.257 46.2621L26.8979 47.4732L21.5173 56.7578ZM38.1388 41.4292L38.104 41.3916C38.1381 40.9394 37.9521 40.5531 37.5506 40.1219L27.4724 29.3136C27.0708 28.8832 26.6801 28.6516 26.2272 28.6553L26.2092 28.6357L27.8768 27.0809C29.9373 25.1601 32.2293 24.9141 33.6437 26.4313C35.0242 27.9108 34.6906 30.1826 32.8732 31.877L32.0492 32.6453L32.3458 32.9636L33.4325 31.9508C35.9987 29.5582 39.3362 29.4569 41.4321 31.7048C43.4231 33.8398 43.0462 36.8531 40.48 39.2464L38.1388 41.4292ZM35.3816 44.6306L41.1695 39.2341C44.3536 36.2649 45.3954 32.387 43.2119 30.0458C41.4299 28.1351 37.7423 27.897 34.925 30.2093L34.8549 30.1341C36.5196 28.1264 36.3648 25.8199 35.3693 24.752C33.7798 23.0475 30.765 23.7572 27.8435 26.4819L22.8232 31.1629L22.9809 31.3322L23.6921 30.668C24.6848 29.7427 24.8852 29.7311 25.7237 30.6304L36.0985 41.7562C36.9363 42.6555 36.911 42.8545 35.9184 43.7798L35.2065 44.4433L35.3816 44.6306ZM47.0189 33.3572L51.4865 30.8532L51.3736 30.6514L50.1675 31.3278C49.431 31.7409 48.7835 31.6339 48.4955 31.1202C48.408 30.9639 48.3747 30.7476 48.3414 30.532L48.107 27.0223L57.8474 21.5622L60.9258 23.8593C61.3172 24.1392 61.8765 24.5596 62.2744 24.4836L62.299 24.5278L60.4223 25.5797L60.5351 25.7808L65.2262 23.1517L65.1134 22.9498L64.9123 23.0627C64.0412 23.551 63.7764 23.2891 62.6839 22.4926L49.6596 12.8224C49.3753 12.6292 48.9607 12.0989 48.7104 11.6518L48.5599 11.3841L46.6608 12.4484L47.8726 30.7946C47.9182 31.767 47.9117 32.5925 47.2859 32.9434L46.906 33.1561L47.0189 33.3572ZM48.0824 26.5079L47.3285 14.6876C47.2888 14.0929 47.1933 13.7644 47.118 13.6313L47.3416 13.5054C47.479 13.7514 47.6642 14.0285 48.0434 14.2868L57.4429 21.2605L48.0824 26.5079ZM72.7158 11.7676C73.4306 17.4072 77.8446 20.6687 83.7143 19.9256C86.6358 19.5552 89.2005 17.9917 89.9711 15.3119L89.4653 15.1955C88.7455 17.4556 86.3211 19.1052 83.6789 19.4402C78.9024 20.045 75.8948 17.0953 75.1258 11.0231C74.4305 5.5347 76.5221 2.27465 81.1206 1.69224C83.8648 1.34497 86.8087 2.77892 87.2507 5.04634L87.6262 7.39986L88.1312 7.31014L86.9469 0L86.6929 0.0318293L86.9787 1.88035C87.0113 2.13429 87.0713 2.41067 87.148 2.60674L86.9765 2.68052C86.8781 2.51195 86.7508 2.32167 86.6083 2.21098C85.0209 1.30228 83.15 0.996966 81.2696 1.23572C75.4253 1.97585 71.9829 6.18077 72.6876 11.7444L72.7158 11.7676ZM101.394 14.9647L102.392 6.80442L102.138 6.77331L102.029 7.66321C101.73 10.1035 100.25 10.1802 98.6739 9.98706L97.5554 9.85032L98.3708 3.18986C98.4395 2.63133 98.2152 2.13864 97.9222 1.79353L97.9251 1.76748L101.866 2.25005C104.56 2.57996 105.894 3.69776 105.736 6.4651L105.619 8.25719L106.128 8.31941L106.463 1.36812L106.205 1.36233L106.164 2.54452L106.114 2.538C105.957 2.33832 105.557 2.23775 105.125 2.18494L93.9647 0.818987L93.9365 1.04761L94.9024 1.16627C96.2502 1.33122 96.387 1.47664 96.2379 2.69717L94.3865 17.8224C94.2375 19.0423 94.0689 19.1508 92.7218 18.9858L91.7559 18.8672L91.7277 19.0965L104.387 20.6462C104.845 20.7019 105.232 20.6976 105.457 20.5449L105.483 20.5478L105.263 21.7083L105.489 21.7611L106.815 14.9314L106.383 14.8786L105.957 16.8906C105.454 19.3056 104.062 20.142 101.367 19.812L95.8002 19.1305L95.8031 19.1052C96.1706 18.8411 96.5071 18.4172 96.5751 17.8579L97.4997 10.3076L98.6175 10.445C100.194 10.6375 101.609 11.0954 101.31 13.535L101.139 14.9336L101.394 14.9647ZM107.265 20.3438L105.522 24.7766L106.476 25.1514L107.469 22.625C107.919 21.4811 108.193 21.2033 109.456 21.6996L121.303 26.3553C122.566 26.8516 122.602 27.2517 122.153 28.3955L121.159 30.922L122.089 31.2873L123.831 26.8538L121.495 25.9357L127.396 10.9182C127.846 9.77435 128.12 9.49725 129.384 9.99429L130.313 10.3589L130.398 10.144L117.645 5.13316L117.561 5.34804L118.133 5.57232C119.968 6.29364 120.146 6.47307 119.49 8.14143L117.589 12.9801C115.677 17.7052 111.606 20.2881 109.101 21.0651L107.265 20.3438ZM111.985 22.1981C114.096 20.6064 116.616 17.4144 118.48 12.6712L120.766 6.85434L125.867 8.85913L119.469 25.1398L111.985 22.1981ZM124.558 28.0352L130.275 31.7409C133.885 34.0814 137.323 34.0518 138.87 31.6664C140.416 29.2811 139.04 26.1303 135.429 23.7898L133.624 22.6192L137.609 16.4731C138.278 15.4422 138.511 15.4103 139.65 16.149L140.467 16.6786L140.592 16.4847L134.575 12.5837L134.45 12.7776L135.266 13.3071C136.405 14.0451 136.478 14.2144 135.81 15.2461L127.521 28.0331C126.852 29.0648 126.653 29.0879 125.514 28.3499L124.698 27.8204L124.558 28.0352ZM133.388 22.9845L134.741 23.8629C137.621 25.7295 138.346 28.0005 136.828 30.3424C135.309 32.6851 132.954 32.9289 130.074 31.0616L128.333 29.9329L128.361 29.8903C128.808 29.8136 129.139 29.5394 129.458 29.0452L133.388 22.9845ZM137.187 35.9538L140.695 40.0987L140.871 39.9497L140.225 39.1871C139.216 37.9948 139.282 37.6367 139.752 37.2395C139.888 37.1244 140.061 37.0108 140.237 36.8618L150.965 28.7247C151.333 28.4462 151.47 28.3304 151.646 28.1814L151.712 28.2602C151.654 28.3094 151.332 28.6828 151.089 29.1892L144.425 44.6256L144.337 44.7999L144.386 44.8585L144.574 44.8014L161.181 40.6789C161.757 40.5277 162.205 40.3823 162.264 40.3331L162.379 40.4699C162.165 40.6515 161.871 40.8996 161.536 41.2172L151.596 50.3657L151.264 50.6465C150.795 51.0437 150.369 51.1355 149.377 49.9628L148.715 49.1807L148.538 49.3297L153.287 54.9411L153.463 54.7921L153.066 54.3225C152.073 53.1497 152.215 52.7612 153.295 51.7794L163.795 42.0239C163.99 41.8582 164.15 41.6897 164.306 41.5573C164.873 41.0776 165.299 40.9857 166.192 42.0413L166.804 42.7648L166.98 42.6165L164.25 39.3904L148.333 43.2972C147.924 43.4087 147.362 43.6163 147.244 43.7162L147.162 43.6185C147.279 43.5186 147.496 43.1005 147.721 42.5738L154.208 27.523L151.528 24.3556L151.353 24.5039L152.081 25.3648C152.875 26.3032 152.814 26.589 152.365 26.9695L151.955 27.3168L140.194 36.2953C139.032 37.144 138.607 37.2359 137.68 36.1405L137.383 35.7889L137.187 35.9538ZM153.054 55.8947L154.894 60.674L155.11 60.5908L154.613 59.3008C154.31 58.5122 154.507 57.8871 155.057 57.6752C155.224 57.6108 155.443 57.6086 155.662 57.6072L159.169 57.8763L163.181 68.2967L160.468 71.0156C160.135 71.3629 159.639 71.8563 159.657 72.2607L159.61 72.2788L158.837 70.2711L158.622 70.3536L160.554 75.3732L160.77 75.29L160.686 75.0751C160.328 74.1432 160.625 73.9182 161.57 72.9509L173.001 61.4417C173.232 61.1884 173.817 60.8535 174.295 60.669L174.582 60.5583L173.8 58.5267L155.469 57.1051C154.5 57.0117 153.684 56.8873 153.425 56.2173L153.269 55.8115L153.054 55.8947ZM159.681 57.9255L171.488 58.8682C172.083 58.9138 172.421 58.866 172.564 58.8103L172.656 59.0498C172.393 59.1504 172.092 59.2943 171.783 59.6329L163.537 67.9393L159.681 57.9255ZM161.123 85.6504L161.641 92.3405L161.871 92.3224L161.793 91.3269C161.689 89.9732 161.807 89.8357 163.032 89.741L178.225 88.566C179.451 88.4712 179.588 88.5892 179.693 89.9428L179.77 90.9383L180 90.921L179.434 83.5928C179.085 79.0977 177.071 75.9657 173.675 76.2283C170.278 76.491 168.77 79.8957 169.117 84.39C164.928 84.6881 162.424 83.2122 162.188 80.1475C162.102 79.0499 162.438 77.7397 163.227 76.3173L161.21 76.4729C160.611 77.3671 160.362 78.4654 160.451 79.6143C160.723 83.1384 164.199 85.2329 169.157 84.9008L169.323 87.0452L162.863 87.5452C161.637 87.6399 161.497 87.4967 161.393 86.1438L161.353 85.633L161.123 85.6504ZM169.782 87.0098L169.595 84.5839C169.329 81.1372 170.468 78.9429 173.864 78.6802C177.26 78.4176 178.725 80.4101 178.991 83.8575L179.216 86.7689L179.19 86.771C178.859 86.4628 178.413 86.3427 177.826 86.3883L169.782 87.0098Z" fill="#FEFEFE"/>
</svg>
