<svg width="180" height="73" viewBox="0 0 180 73" fill="none" xmlns="http://www.w3.org/2000/svg">
<path d="M18.0651 72.5419L21.1561 64.6777L20.9296 64.5885L20.2287 66.3723C19.7048 67.7046 19.5103 67.8304 18.3046 67.3568L3.5813 61.5692C3.02916 61.3519 2.46786 61.451 2.0385 61.6592L2.01258 61.6493L2.89188 59.4125C3.93821 56.7494 5.72734 54.929 8.50025 55.845L10.3084 56.4108L10.506 55.9083L2.93688 53.5418L2.86367 53.8034L4.61161 54.3746L4.6017 54.3998C4.34698 54.531 4.25699 54.6126 4.0793 55.064L0 65.4411L0.226503 65.5303L0.601715 64.5755C1.12488 63.244 1.31019 63.1425 2.51591 63.6161L17.4649 69.4922C18.6714 69.9665 18.737 70.1671 18.2138 71.4986L17.8386 72.4527L18.0651 72.5419ZM7.22743 48.4803L7.43105 48.6122L7.78414 48.0684C8.91436 46.3251 9.13704 46.1794 10.7225 47.2074L15.3212 50.1893C19.8146 53.1346 21.3322 57.6905 21.5923 60.4657L24.0495 59.999C23.868 57.5014 21.2361 53.1239 15.1893 49.2025L9.66173 45.6189L13.4512 39.7749L27.7215 49.0278C28.809 49.7333 29.0378 50.0742 28.2737 51.2524L27.8329 51.9319L28.0373 52.0639L32.0174 45.9255L31.813 45.7935L31.2411 46.6766C30.4616 47.8778 30.0719 47.7855 28.9844 47.0801L15.9145 38.605C14.827 37.9003 14.5837 37.5815 15.3631 36.3804L15.9351 35.4973L15.7315 35.3653L7.22743 48.4803ZM32.237 44.9188L36.3575 41.4313L36.2004 41.246L35.0885 42.1871C34.4082 42.7628 33.7173 42.7819 33.3162 42.3075C33.1941 42.1634 33.1164 41.9468 33.0386 41.7295L32.0922 38.1451L41.0774 30.5417L44.7236 32.3019C45.1849 32.5124 45.8477 32.8357 46.2442 32.6771L46.2785 32.7183L44.5474 34.1833L44.7045 34.3686L49.0324 30.7065L48.8753 30.5211L48.6892 30.6782C47.8862 31.3577 47.5598 31.1396 46.2694 30.5341L30.8521 23.1389C30.5196 22.9955 29.9835 22.5303 29.635 22.1177L29.4252 21.8706L27.6735 23.3532L32.6062 42.0955C32.8479 43.0923 33.0073 43.948 32.4292 44.4368L32.0792 44.7327L32.237 44.9188ZM31.9633 37.6174L28.8136 25.5358C28.6535 24.9288 28.4887 24.6085 28.3843 24.4849L28.5902 24.3111C28.7816 24.5368 29.0294 24.7869 29.4733 24.9776L40.5985 30.3107L31.9633 37.6174ZM53.6692 28.0388L53.6448 27.99C53.8141 27.5431 53.7424 27.0969 53.4648 26.541L46.5066 12.6047C46.229 12.0488 45.9033 11.6987 45.4442 11.566L45.432 11.5416L47.5819 10.4686C50.2389 9.14162 52.6297 9.57784 53.6059 11.534C54.5592 13.4428 53.5433 15.6392 51.2006 16.8091L50.1375 17.3399L50.3426 17.7502L51.7435 17.0508C55.0526 15.399 58.4562 16.2935 59.9037 19.1923C61.2779 21.9454 59.9975 24.8792 56.6877 26.5311L53.6692 28.0388ZM49.9247 30.451L57.3878 26.7248C61.4945 24.6741 63.7054 21.0661 62.1984 18.0468C60.9683 15.5828 57.3107 14.2405 53.7729 15.7361L53.7241 15.6392C56.0066 14.1071 56.5397 11.7292 55.8518 10.3519C54.7552 8.15478 51.4949 7.97175 47.7275 9.8524L41.2544 13.0844L41.3627 13.3025L42.2809 12.8442C43.5605 12.2051 43.7665 12.2531 44.3453 13.4123L51.5087 27.7597C52.0875 28.9189 52.0021 29.1118 50.7224 29.7509L49.8042 30.2092L49.9247 30.451ZM65.1155 22.4815L70.4317 21.542L70.3898 21.3025L68.9545 21.5564C68.0775 21.7113 67.4705 21.3803 67.3622 20.7687C67.3294 20.5826 67.3713 20.3561 67.4133 20.1296L68.3993 16.5551L79.9905 14.5067L82.2555 17.8623C82.5476 18.2771 82.9579 18.8895 83.3804 18.9521L83.3895 19.0047L81.1566 19.3997L81.1985 19.6392L86.7817 18.6524L86.739 18.4129L86.4995 18.4556C85.4631 18.6386 85.2908 18.2855 84.4801 17.1134L74.8794 2.96433C74.6636 2.67301 74.4348 2.00114 74.341 1.46882L74.2845 1.15005L72.0249 1.54967L66.8558 20.2279C66.5629 21.2117 66.2693 22.0308 65.5242 22.1627L65.0735 22.242L65.1155 22.4815ZM68.5542 16.035L71.9112 4.0099C72.0783 3.40438 72.0973 3.04442 72.0691 2.88503L72.3345 2.8385C72.3864 3.13059 72.4748 3.47072 72.7623 3.85966L79.6923 14.0659L68.5542 16.035ZM95.6236 19.1237L102.805 20.3713L102.846 20.1319L102.102 20.0022C100.691 19.7574 100.571 19.3532 100.793 18.0766L103.704 1.31935L111.736 2.71495L108.825 19.4722C108.603 20.7488 108.379 21.0928 106.996 20.8525L106.197 20.7137L106.156 20.954L113.364 22.2062L113.406 21.9667L112.369 21.786C110.959 21.5412 110.89 21.1462 111.112 19.8695L113.778 4.52239C114 3.24575 114.197 2.89647 115.608 3.14203L116.645 3.32201L116.687 3.08255L98.9456 0L98.9045 0.239466L99.9149 0.414874C101.324 0.660441 101.42 1.06005 101.198 2.33669L98.5315 17.6838C98.3096 18.9605 98.0854 19.3044 96.6753 19.0596L95.6648 18.8842L95.6236 19.1237ZM123.297 27.0466L129.741 29.9614L129.841 29.7402L128.883 29.3063C127.579 28.716 127.511 28.5375 128.045 27.357L134.666 12.7222C135.2 11.5424 135.379 11.4745 136.683 12.0648L137.641 12.4987L137.742 12.2768L130.683 9.08366C126.354 7.12447 122.438 7.39749 120.957 10.6692C119.478 13.9401 121.858 17.0615 126.187 19.0199C124.337 23.0428 121.704 24.607 118.753 23.2716C117.695 22.7934 116.654 21.8188 115.74 20.3683L114.861 22.3114C115.383 23.3181 116.272 24.1051 117.379 24.6054C120.773 26.1414 124.472 23.9923 126.679 19.2426L128.745 20.1776L125.93 26.3999C125.396 27.5804 125.193 27.6369 123.89 27.0474L123.398 26.8247L123.297 27.0466ZM128.946 19.7345L126.609 18.6775C123.289 17.1751 121.839 15.0085 123.319 11.7376C124.799 8.4667 127.383 8.12351 130.704 9.62589L133.508 10.8949L133.497 10.9193C133.044 11.0695 132.706 11.4211 132.451 11.9862L128.946 19.7345ZM132.544 32.3339L140.305 38.5348L140.458 38.3449L138.728 36.9631C137.61 36.07 137.589 35.8801 138.398 34.8681L149.165 21.3902L150.515 22.4685C152.729 24.2378 153.147 25.2285 151.698 27.3883L151.07 28.3034L151.509 28.6191L155.064 23.4775L154.794 23.296L153.939 24.5833L143.141 15.9557L144.224 14.8163L143.987 14.5936L139.719 19.1999L140.124 19.5584L140.899 18.7606C142.623 16.8205 143.723 17.0432 145.959 18.8293L147.351 19.9412L136.584 33.4184C135.774 34.4311 135.585 34.4517 134.467 33.5587L132.696 32.144L132.544 32.3339ZM141.816 38.785L145.102 43.0686L145.295 42.9207L144.408 41.7638C143.866 41.0576 143.88 40.3659 144.372 39.9884C144.523 39.8732 144.743 39.8061 144.963 39.739L148.589 38.965L155.753 48.3041L153.821 51.8618C153.588 52.3125 153.233 52.9592 153.373 53.3626L153.33 53.3954L151.95 51.5956L151.757 51.7435L155.208 56.2423L155.401 56.0943L155.253 55.9014C154.612 55.0663 154.846 54.7506 155.512 53.4907L163.637 38.4456C163.796 38.12 164.287 37.6067 164.715 37.278L164.972 37.0813L163.576 35.2601L144.619 39.2891C143.611 39.4835 142.749 39.601 142.288 39.0008L142.009 38.637L141.816 38.785ZM149.122 38.862L161.341 36.2942C161.955 36.1631 162.283 36.0143 162.411 35.9152L162.575 36.1295C162.34 36.3102 162.078 36.5459 161.866 36.9798L156.007 47.8366L149.122 38.862ZM159.386 66.1687L162.24 72.6396L162.463 72.5419L162.038 71.5787C161.461 70.2693 161.529 70.0909 162.715 69.5685L177.412 63.0861C178.597 62.5637 178.775 62.6324 179.353 63.9425L179.777 64.905L180 64.8074L176.873 57.7187C174.956 53.3702 171.857 50.9611 168.572 52.4093C165.287 53.8583 164.977 57.7714 166.894 62.1191C162.833 63.8808 159.827 63.289 158.52 60.3246C158.052 59.2623 157.927 57.8423 158.214 56.1515L156.262 57.0125C155.98 58.1107 156.116 59.2897 156.606 60.4017C158.11 63.8098 162.299 64.6777 167.112 62.6133L168.028 64.6876L161.778 67.4445C160.593 67.9669 160.404 67.8739 159.826 66.5645L159.609 66.0703L159.386 66.1687ZM168.472 64.4916L167.437 62.145C165.966 58.8108 166.333 56.2301 169.618 54.7811C172.903 53.3321 175.056 54.8017 176.527 58.1367L177.769 60.9523L177.744 60.9637C177.306 60.7731 176.821 60.8097 176.252 61.0606L168.472 64.4916Z" fill="#FEFEFE"/>
</svg>
