<svg width="180" height="80" viewBox="0 0 180 80" fill="none" xmlns="http://www.w3.org/2000/svg">
<path d="M18.3642 79.4561L20.1728 71.4616L19.942 71.4098L19.5322 73.223C19.226 74.5774 19.0581 74.7269 17.8323 74.4494L2.86503 71.0636C2.30357 70.9371 1.77983 71.1139 1.39886 71.3773L1.37297 71.3714L1.88709 69.0974C2.49886 66.3907 3.94728 64.3823 6.73982 64.8527L8.55663 65.1294L8.67203 64.619L1.06745 63.462L1.03564 63.7231L2.7955 64.0146L2.78958 64.0397C2.5647 64.2032 2.48998 64.2942 2.38642 64.7543L0 75.3024L0.23006 75.3549L0.449766 74.3844C0.756021 73.0306 0.918763 72.9056 2.14452 73.183L17.3411 76.6206C18.5669 76.898 18.6601 77.08 18.3538 78.4337L18.1341 79.4043L18.3642 79.4561ZM5.01843 57.1017L5.22852 57.2097L5.51628 56.6512C6.43874 54.8588 6.63922 54.6968 8.26888 55.5356L12.9958 57.9679C17.6178 60.3758 19.5234 64.6264 20.0434 67.2791L22.3699 66.5911C21.9527 64.1981 18.9893 60.2278 12.7724 57.0284L7.0912 54.1042L10.1826 48.0975L24.8517 55.6473C25.9695 56.2221 26.2232 56.5291 25.5996 57.7401L25.2401 58.4384L25.4502 58.5464L28.6977 52.2371L28.4876 52.1291L28.0208 53.0368C27.3854 54.2714 27 54.2204 25.8822 53.6448L12.447 46.7304C11.3299 46.1549 11.0636 45.8709 11.6991 44.6362L12.1666 43.7286L11.9565 43.6206L5.01843 57.1017ZM28.8427 51.3487L32.3069 47.4214L32.1301 47.2653L31.1951 48.3253C30.6232 48.9734 29.9626 49.0895 29.5114 48.6908C29.3738 48.5695 29.2688 48.3719 29.1637 48.1752L27.7508 44.8678L35.3043 36.306L39.0512 37.4822C39.5231 37.6197 40.2052 37.8365 40.5632 37.6286L40.6024 37.6627L39.1466 39.3123L39.3234 39.4684L42.9614 35.345L42.7846 35.1889L42.6286 35.3657C41.9532 36.1314 41.6092 35.9679 40.2858 35.5684L24.4486 30.6402C24.109 30.55 23.5291 30.1787 23.1363 29.8325L22.901 29.6238L21.4282 31.2934L28.7998 48.5872C29.1726 49.5097 29.4456 50.3086 28.9595 50.859L28.6659 51.1926L28.8427 51.3487ZM27.5525 44.3795L22.8293 33.2279C22.5903 32.6679 22.3869 32.3838 22.2693 32.2803L22.4424 32.0835C22.6584 32.2743 22.9314 32.4793 23.3841 32.5998L34.8117 36.1521L27.5525 44.3795ZM47.2705 32.3284L47.2424 32.284C47.3652 31.8372 47.2542 31.4125 46.9354 30.9014L38.9306 18.086C38.6117 17.5756 38.2648 17.2671 37.8091 17.1813L37.7951 17.1591L39.7724 15.9245C42.215 14.3984 44.5637 14.5989 45.6874 16.3979C46.7837 18.1526 46.0055 20.3674 43.8514 21.713L42.8734 22.3233L43.1094 22.7013L44.3973 21.8965C47.4406 19.9961 50.8101 20.5464 52.4746 23.2117C54.0561 25.7431 53.0893 28.694 50.0467 30.5944L47.2705 32.3284ZM43.8773 35.0033L50.7406 30.7172C54.5163 28.3581 56.3183 24.6705 54.5843 21.8935C53.1692 19.6284 49.5141 18.6689 46.2356 20.4399L46.1801 20.3504C48.2432 18.6608 48.5376 16.3158 47.7469 15.0494C46.4848 13.0284 43.3202 13.1527 39.856 15.3164L33.9033 19.0344L34.0283 19.2341L34.8723 18.7074C36.0493 17.9721 36.2527 17.9995 36.9185 19.0655L45.1585 32.2581C45.8243 33.324 45.7599 33.5186 44.583 34.2539L43.7389 34.7813L43.8773 35.0033ZM57.7719 25.991L62.743 24.345L62.669 24.1209L61.3271 24.5647C60.5067 24.8369 59.8779 24.6039 59.6886 24.0321C59.6309 23.8583 59.6397 23.6349 59.6479 23.4115L60.0947 19.8429L70.9327 16.2537L73.5765 19.1579C73.9153 19.5152 74.3954 20.0456 74.809 20.0464L74.8252 20.0959L72.7369 20.7868L72.8109 21.011L78.032 19.2829L77.9573 19.0588L77.7339 19.1328C76.7641 19.4538 76.5496 19.1394 75.6079 18.1267L64.4118 5.88985C64.164 5.64056 63.8504 5.02805 63.6862 4.53094L63.587 4.23208L61.4736 4.93188L59.1264 23.5838C58.9836 24.5692 58.8164 25.3962 58.1196 25.627L57.6979 25.7668L57.7719 25.991ZM60.1694 19.3214L61.7095 7.30942C61.785 6.70431 61.7525 6.35663 61.7029 6.20794L61.9514 6.12583C62.0424 6.39879 62.1741 6.71319 62.5048 7.04607L70.5858 15.8727L60.1694 19.3214ZM86.687 18.7799L93.7398 19.2866L93.7561 19.0514L93.0252 18.9989C91.6404 18.899 91.4843 18.521 91.5745 17.2671L92.7567 0.811498L100.645 1.37815L99.4617 17.8338C99.3715 19.0876 99.1895 19.4412 97.8306 19.3436L97.0472 19.2874L97.0302 19.5226L104.108 20.0316L104.125 19.7963L103.107 19.7231C101.722 19.6232 101.618 19.2489 101.708 17.995L102.791 2.92422C102.881 1.67035 103.038 1.31453 104.422 1.41439L105.441 1.48763L105.458 1.25164L88.0363 0L88.0193 0.235234L89.0121 0.306996C90.3961 0.406122 90.5271 0.782653 90.4368 2.03652L89.3538 17.1074C89.2643 18.3612 89.0809 18.7148 87.6968 18.6157L86.7041 18.5447L86.687 18.7799ZM115.701 18.1963L118.376 10.227L118.127 10.1441L117.836 11.0126C117.036 13.396 115.537 13.1689 113.998 12.6526L112.906 12.2864L115.089 5.78185C115.272 5.23592 115.149 4.69664 114.926 4.29126L114.934 4.26611L118.782 5.55697C121.414 6.44022 122.52 7.8339 121.795 10.5732L121.311 12.3441L121.807 12.5106L123.569 5.61688L123.312 5.55771L123.028 6.7339L122.978 6.71688C122.863 6.4846 122.483 6.30189 122.06 6.15986L111.162 2.5033L111.087 2.7267L112.03 3.04331C113.345 3.48494 113.453 3.65878 113.054 4.85051L108.097 19.6217C107.697 20.8127 107.506 20.8875 106.19 20.4458L105.247 20.1292L105.172 20.3526L117.535 24.5018C117.982 24.6513 118.371 24.7267 118.628 24.6195L118.653 24.6276L118.195 25.7446L118.41 25.8445L121.139 19.2748L120.718 19.1335L119.877 21.0613C118.879 23.3782 117.313 23.93 114.681 23.0468L109.244 21.2226L109.253 21.1967C109.675 21.008 110.099 20.6522 110.282 20.1063L112.756 12.7332L113.848 13.0994C115.388 13.6157 116.711 14.3644 115.911 16.7478L115.454 18.1127L115.701 18.1963ZM133.174 11.7671L134.986 12.8176C138.136 14.644 138.892 17.2013 137.172 20.1692C135.451 23.1363 132.856 23.7503 129.707 21.9246L128.303 21.1109L132.703 13.5211C133.005 13.0003 133.193 12.4137 133.108 11.8803L133.174 11.7671ZM120.266 25.4709L126.359 29.0039L126.477 28.7998L125.866 28.4454C124.665 27.7493 124.572 27.5444 125.203 26.457L128.066 21.5185L130.218 22.7657C133.979 24.9464 137.627 24.3975 139.347 21.4297C141.081 18.4396 139.745 15.0013 135.984 12.8213L129.708 9.18246L129.59 9.38663L130.451 9.88596C131.652 10.5821 131.723 10.7744 131.092 11.8611L123.277 25.3407C122.647 26.4274 122.445 26.4622 121.244 25.7661L120.384 25.2667L120.266 25.4709ZM137.405 36.0493L137.442 36.0115C137.906 36.0241 138.292 35.8155 138.712 35.3842L149.252 24.5573C149.672 24.1261 149.889 23.7155 149.864 23.2532L149.882 23.2339L151.552 24.8599C153.616 26.869 153.98 29.1977 152.501 30.7179C151.057 32.2004 148.721 31.9718 146.902 30.2001L146.075 29.396L145.765 29.7148L146.853 30.7749C149.424 33.2774 149.692 36.681 147.499 38.9321C145.418 41.0714 142.322 40.8354 139.751 38.3329L137.405 36.0493ZM134 33.3914L139.798 39.0356C142.988 42.1411 146.998 43.0132 149.282 40.6675C151.145 38.7538 151.206 34.9752 148.706 32.2129L148.779 32.1375C150.912 33.7383 153.26 33.4668 154.301 32.3971C155.963 30.6898 155.089 27.6458 152.162 24.7963L147.134 19.9006L146.969 20.07L147.682 20.7639C148.676 21.7322 148.698 21.9357 147.821 22.8359L136.97 33.9817C136.094 34.882 135.89 34.8657 134.896 33.8974L134.182 33.2035L134 33.3914ZM146.086 44.7235L148.861 49.1642L149.062 49.0392L148.312 47.8401C147.854 47.1077 147.932 46.4412 148.442 46.1224C148.599 46.0255 148.818 45.9811 149.036 45.936L152.609 45.5261L158.659 55.2087L156.463 58.4643C156.196 58.8778 155.794 59.4689 155.891 59.872L155.847 59.8994L154.681 58.0338L154.481 58.1588L157.396 62.8221L157.595 62.6971L157.47 62.4966C156.93 61.6311 157.185 61.3478 157.945 60.1931L167.188 46.4212C167.371 46.1216 167.893 45.6719 168.336 45.3945L168.603 45.228L167.424 43.3402L148.745 45.4699C147.754 45.5639 146.911 45.5972 146.522 44.975L146.287 44.5978L146.086 44.7235ZM153.134 45.4758L165.17 44.131C165.775 44.0614 166.105 43.9475 166.238 43.8647L166.377 44.0866C166.133 44.239 165.858 44.4424 165.613 44.8419L158.948 54.7804L153.134 45.4758ZM160.022 73.004L161.863 79.6129L162.09 79.55L161.816 78.5661C161.443 77.2287 161.534 77.0674 162.745 76.7301L177.755 72.5505C178.965 72.2132 179.126 72.3042 179.499 73.6416L179.773 74.6248L180 74.5619L177.984 67.322C176.747 62.8821 174.107 60.1376 170.752 61.0719C167.397 62.0069 166.557 65.7205 167.793 70.1604C163.648 71.287 160.846 70.301 160.002 67.2732C159.701 66.1887 159.778 64.8083 160.289 63.2253L158.296 63.7801C157.872 64.795 157.839 65.9461 158.155 67.0816C159.125 70.5628 163.025 71.9772 167.933 70.6649L168.524 72.7835L162.141 74.5611C160.93 74.8985 160.762 74.7823 160.39 73.4456L160.25 72.9411L160.022 73.004ZM168.977 72.657L168.31 70.261C167.361 66.8552 168.072 64.4289 171.427 63.4946C174.782 62.5603 176.645 64.2698 177.594 67.6756L178.394 70.5517L178.369 70.5584C177.975 70.315 177.504 70.2825 176.924 70.4445L168.977 72.657Z" fill="#FEFEFE"/>
</svg>
