<svg width="180" height="94" viewBox="0 0 180 94" fill="none" xmlns="http://www.w3.org/2000/svg">
<path d="M19.6658 92.7959L19.8399 84.8473L19.6094 84.8423L19.5697 86.6448C19.5408 87.9917 19.4086 88.1661 18.182 88.1396L3.20021 87.8167C2.63819 87.8045 2.17152 88.0743 1.858 88.3979L1.83199 88.3972L1.88112 86.1368C1.93963 83.4444 2.93437 81.2558 5.69897 81.1633L7.49124 81.0743L7.50208 80.5669L0 80.9379L0.0202248 81.1927L1.76048 81.1288V81.1539C1.57699 81.3534 1.52353 81.4539 1.51341 81.911L1.28369 92.3998L1.51414 92.4049L1.53509 91.4397C1.56471 90.0935 1.69618 89.9436 2.92281 89.9701L18.1343 90.298C19.3616 90.3246 19.4859 90.4803 19.457 91.8265L19.4353 92.7909L19.6658 92.7959ZM2.18525 75.0775L2.40991 75.1277L2.545 74.5328C2.97916 72.6262 3.12942 72.4246 4.87545 72.8171L9.93871 73.9552C14.8972 75.0947 17.7377 78.6245 18.8769 80.9896L20.909 79.779C19.9294 77.632 16.1578 74.6232 9.49878 73.1271L3.4126 71.7594L4.8675 65.3672L20.5818 68.8977C21.7788 69.1668 22.0937 69.3935 21.8005 70.6823L21.6314 71.425L21.8561 71.4759L23.3847 64.7615L23.16 64.7113L22.9404 65.6772C22.6413 66.9911 22.2642 67.0363 21.0672 66.7672L6.67493 63.5338C5.47792 63.2647 5.15718 63.0623 5.45625 61.7484L5.67586 60.7826L5.45119 60.7323L2.18525 75.0775ZM23.5949 63.9887L25.9347 59.4723L25.7303 59.3675L25.0982 60.5867C24.7124 61.3322 24.115 61.5977 23.592 61.3308C23.4323 61.249 23.2857 61.089 23.139 60.9282L21.0101 58.1534L26.1124 48.306L29.9411 48.5213C30.4215 48.5385 31.1186 48.5801 31.4076 48.2996L31.4531 48.3225L30.4699 50.2198L30.6744 50.3246L33.1319 45.5814L32.9275 45.4766L32.822 45.6804C32.3655 46.5609 32.0007 46.4891 30.652 46.4281L14.479 45.5584C14.1358 45.5541 13.498 45.3431 13.0428 45.1106L12.7698 44.9707L11.775 46.8909L22.8934 61.4018C23.467 62.1811 23.9163 62.8678 23.5884 63.5008L23.3897 63.8839L23.5949 63.9887ZM20.706 57.7415L13.5651 48.3771C13.2047 47.907 12.9439 47.6882 12.8081 47.6186L12.9244 47.3925C13.1743 47.5203 13.4821 47.6487 13.9401 47.6545L25.6089 48.278L20.706 57.7415ZM36.7064 41.8665L36.6695 41.8313C36.6818 41.3814 36.4781 41.0068 36.0569 40.5999L25.4825 30.3766C25.0613 29.9697 24.6604 29.7595 24.2082 29.7839L24.1901 29.7659L25.7772 28.1456C27.7393 26.1436 30.0134 25.7891 31.4979 27.2243C32.9456 28.6243 32.7231 30.8904 30.9929 32.6563L30.2084 33.4571L30.5198 33.7585L31.5542 32.703C33.9981 30.2087 37.3211 29.9489 39.5208 32.0744C41.6093 34.0944 41.3795 37.0974 38.9357 39.591L36.7064 41.8665ZM34.1115 45.1709L39.6227 39.5458C42.6546 36.4516 43.5055 32.5602 41.2148 30.345C39.3453 28.5381 35.656 28.4793 32.9586 30.9054L32.8849 30.8344C34.4481 28.7656 34.1823 26.488 33.137 25.4777C31.4697 23.866 28.4978 24.7142 25.7151 27.5536L20.935 32.4324L21.1004 32.5917L21.7781 31.9C22.7237 30.9356 22.9223 30.9148 23.8015 31.7651L34.6873 42.2884C35.5664 43.1387 35.5512 43.3368 34.6056 44.3019L33.928 44.9937L34.1115 45.1709ZM45.2769 33.5705L49.6141 30.8796L49.492 30.6851L48.321 31.412C47.6051 31.8555 46.955 31.7802 46.6436 31.285C46.5483 31.1343 46.5049 30.9219 46.4616 30.7088L46.0614 27.2429L55.5183 21.376L58.6968 23.5072C59.1006 23.7662 59.6785 24.1566 60.0715 24.0619L60.0982 24.1049L58.2764 25.2351L58.3985 25.4296L62.9532 22.6038L62.8311 22.4093L62.6353 22.5306C61.7901 23.0551 61.5134 22.8083 60.3858 22.0699L46.9384 13.1023C46.6458 12.9243 46.2073 12.4184 45.9357 11.9872L45.7731 11.7288L43.9296 12.8727L46.0065 30.9915C46.0982 31.9524 46.1307 32.7711 45.5225 33.1479L45.1548 33.3761L45.2769 33.5705ZM46.013 26.7349L44.7018 15.0591C44.6339 14.4721 44.5227 14.1514 44.4418 14.0229L44.6585 13.888C44.8073 14.1248 45.006 14.3911 45.3961 14.6286L55.1 21.0961L46.013 26.7349ZM75.1696 19.1766L75.1602 19.1264C75.4347 18.7683 75.4896 18.3464 75.387 17.7716L72.8189 3.33747C72.7171 2.76269 72.5155 2.35941 72.1341 2.11759L72.1297 2.09175L74.3706 1.69852C77.141 1.212 79.1948 2.2446 79.5553 4.27033C79.9071 6.24726 78.3936 7.95725 75.9505 8.38564L74.8423 8.58082L74.9175 9.00563L76.3781 8.74945C79.8283 8.14381 82.6789 9.8617 83.2127 12.8633C83.7206 15.7143 81.7672 18.0184 78.3171 18.6241L75.1696 19.1766ZM71.1198 20.352L78.9008 18.9857C83.1817 18.2344 86.1616 15.57 85.6053 12.4436C85.1516 9.89184 82.1913 7.7025 78.575 8.10578L78.5576 8.00532C81.0427 7.23392 82.1667 5.23116 81.9131 3.80462C81.5079 1.52917 78.5966 0.492267 74.6682 1.18186L67.9196 2.36658L67.9601 2.59191L68.9165 2.42399C70.2515 2.19006 70.4249 2.28837 70.6387 3.48888L73.2827 18.3471C73.4958 19.5476 73.3665 19.6997 72.0322 19.9336L71.0758 20.1016L71.1198 20.352ZM98.3397 18.6413C104.508 19.3912 109.101 16.1886 109.788 10.6159C110.472 5.06899 106.791 0.859672 100.623 0.109801C94.4048 -0.646527 89.8111 2.55674 89.127 8.10363C88.4407 13.6763 92.1213 17.885 98.3397 18.6413ZM98.4972 18.2C93.2685 17.5642 90.8773 13.9727 91.62 7.94576C92.2875 2.52517 95.3894 -0.0660128 100.466 0.551105C105.644 1.18042 108.035 4.77263 107.292 10.7989C106.625 16.2195 103.548 18.8142 98.4972 18.2ZM114.788 11.9305C112.448 17.0676 114.5 22.1158 119.882 24.534C122.561 25.7381 125.56 25.7482 127.616 23.8839L127.247 23.523C125.453 25.0586 122.528 25.1942 120.105 24.1056C115.725 22.1373 114.708 18.083 117.227 12.5526C119.504 7.55325 122.987 5.88416 127.204 7.77929C129.721 8.91019 131.476 11.6506 130.667 13.7962L129.756 15.9798L130.233 16.1664L133.046 9.37303L132.812 9.26827L132.09 10.979C131.985 11.21 131.892 11.4748 131.855 11.6808L131.67 11.6542C131.674 11.4605 131.665 11.2337 131.602 11.0658C130.727 9.47421 129.294 8.24499 127.569 7.47001C122.211 5.06181 117.084 6.8285 114.776 11.896L114.788 11.9305ZM127.194 27.8249L132.711 31.7773C136.195 34.273 139.625 34.413 141.286 32.126C142.946 29.8391 141.73 26.6502 138.246 24.1537L136.503 22.9059L140.781 17.0138C141.499 16.025 141.733 16.0049 142.833 16.7928L143.622 17.3575L143.756 17.1717L137.949 13.0112L137.814 13.197L138.602 13.7617C139.701 14.5489 139.766 14.7204 139.048 15.7093L130.148 27.9684C129.43 28.9572 129.231 28.9708 128.131 28.1837L127.343 27.6189L127.194 27.8249ZM136.249 23.2568L137.556 24.1925C140.335 26.183 140.946 28.4693 139.315 30.7146C137.685 32.9606 135.323 33.0854 132.544 31.0949L130.864 29.8908L130.894 29.8492C131.344 29.7953 131.687 29.5406 132.031 29.067L136.249 23.2568ZM139.542 36.138L142.841 40.4112L143.024 40.272L142.417 39.4855C141.468 38.2563 141.551 37.9047 142.038 37.5337C142.18 37.4254 142.357 37.3213 142.54 37.1828L153.629 29.6303C154.009 29.372 154.151 29.2636 154.333 29.1251L154.396 29.2055C154.335 29.2521 153.996 29.6059 153.73 30.0967L146.345 45.0726L146.25 45.2412L146.296 45.3015L146.485 45.2542L163.246 41.959C163.828 41.8363 164.281 41.7136 164.342 41.6677L164.451 41.8083C164.228 41.9784 163.924 42.2102 163.574 42.5094L153.223 51.1003L152.878 51.3629C152.391 51.7339 151.962 51.8049 151.029 50.5951L150.406 49.7892L150.224 49.9285L154.69 55.7129L154.874 55.5737L154.499 55.09C153.565 53.8802 153.726 53.5027 154.851 52.5814L165.788 43.415C165.991 43.2607 166.158 43.1014 166.321 42.978C166.909 42.5295 167.338 42.4585 168.178 43.5463L168.754 44.2926L168.937 44.1534L166.368 40.8281L150.307 43.9424C149.893 44.0335 149.323 44.2122 149.201 44.3055L149.123 44.2051C149.245 44.1118 149.481 43.7078 149.731 43.1968L156.921 28.5941L154.399 25.3284L154.217 25.4676L154.902 26.3545C155.649 27.3218 155.575 27.6024 155.108 27.9583L154.683 28.2827L142.524 36.6188C141.326 37.4045 140.897 37.4749 140.025 36.3461L139.745 35.983L139.542 36.138ZM154.617 56.5395L156.225 61.3617L156.443 61.2899L156.01 59.9882C155.744 59.1924 155.972 58.5825 156.53 58.3988C156.7 58.3428 156.918 58.3514 157.136 58.3593L160.621 58.7927L164.126 69.306L161.29 71.8706C160.941 72.1993 160.423 72.665 160.422 73.0661L160.374 73.0819L159.699 71.0562L159.48 71.1279L161.168 76.1926L161.387 76.1201L161.315 75.9034C161.001 74.9627 161.308 74.7546 162.297 73.8411L174.247 62.9805C174.49 62.7401 175.088 62.4359 175.574 62.2766L175.866 62.1804L175.182 60.1303L156.968 57.8534C156.006 57.7149 155.198 57.5527 154.973 56.8768L154.836 56.4678L154.617 56.5395ZM161.13 58.8652L172.861 60.3592C173.451 60.4324 173.791 60.4008 173.936 60.3527L174.016 60.5938C173.75 60.6821 173.443 60.8098 173.118 61.1306L164.498 68.9694L161.13 58.8652ZM161.436 86.3686L161.621 93.0205L161.851 93.0141L161.824 92.0245C161.786 90.6784 161.91 90.5478 163.137 90.514L178.346 90.0964C179.574 90.0627 179.705 90.1861 179.742 91.5323L179.77 92.5218L180 92.5161L179.798 85.2283C179.673 80.7593 177.818 77.5574 174.419 77.6507C171.019 77.744 169.346 81.0427 169.47 85.5125C165.277 85.6015 162.854 84.0163 162.769 80.9695C162.738 79.8773 163.138 78.5965 163.995 77.2259L161.976 77.2812C161.335 78.1372 161.032 79.2129 161.064 80.356C161.161 83.8599 164.523 86.1052 169.485 86.0206L169.544 88.1525L163.076 88.3304C161.85 88.3642 161.718 88.2156 161.68 86.8702L161.666 86.3621L161.436 86.3686ZM170.004 88.1403L169.937 85.7278C169.841 82.2999 171.087 80.1823 174.487 80.0891C177.886 79.9958 179.249 82.0416 179.344 85.4695L179.424 88.3642L179.398 88.3649C179.083 88.0434 178.644 87.9028 178.056 87.9193L170.004 88.1403Z" fill="#FEFEFE"/>
</svg>
