<svg width="180" height="87" viewBox="0 0 180 87" fill="none" xmlns="http://www.w3.org/2000/svg">
<path d="M18.5309 85.9261L19.5096 77.9175L19.2788 77.8892L19.0567 79.706C18.8914 81.0626 18.7414 81.2257 17.5129 81.0757L2.51953 79.2436C1.95664 79.1751 1.46147 79.4001 1.11413 79.6951L1.08791 79.6921L1.36608 77.4144C1.69741 74.7026 2.91639 72.5923 5.6988 72.7766L7.50543 72.8676L7.56806 72.3557L0.00509785 71.977L0 72.2355L1.75202 72.3462L1.74911 72.3717C1.54522 72.5544 1.48113 72.6506 1.42506 73.1108L0.133989 83.679L0.364094 83.7066L0.482789 82.7345C0.648816 81.3786 0.795908 81.2403 2.02363 81.3903L17.2479 83.2501C18.4756 83.4001 18.5848 83.5697 18.4188 84.9256L18.3001 85.8985L18.5309 85.9261ZM3.09262 66.319L3.31253 66.3925L3.50914 65.8056C4.14048 63.9247 4.3116 63.7368 6.02284 64.3114L10.9833 65.976C15.8388 67.6319 18.3248 71.4847 19.2256 73.989L21.3869 72.9739C20.6252 70.707 17.1517 67.2846 10.6272 65.0949L4.66331 63.0938L6.77943 56.7892L22.1755 61.9549C23.3486 62.3489 23.6413 62.6096 23.2146 63.881L22.9685 64.6143L23.1891 64.6878L25.4116 58.065L25.1909 57.9914L24.8713 58.9439C24.4365 60.2401 24.0535 60.2473 22.8811 59.8541L8.77976 55.1216C7.60665 54.7284 7.30591 54.4917 7.74064 53.1956L8.06031 52.2431L7.8404 52.1688L3.09262 66.319ZM25.6577 57.2115L28.6724 53.031L28.4845 52.8948L27.6704 54.0235C27.1731 54.7131 26.5366 54.8908 26.056 54.5435C25.9097 54.4379 25.7873 54.2551 25.6657 54.0716L23.9625 50.9681L30.5366 41.8526L34.3209 42.6434C34.7965 42.7322 35.4853 42.8793 35.8159 42.6405L35.8574 42.6703L34.5911 44.4267L34.779 44.5629L37.9459 40.1719L37.7573 40.0365L37.6211 40.2251C37.0334 41.0399 36.681 40.9132 35.3455 40.6496L19.356 37.3488C19.0144 37.2934 18.4108 36.9854 17.9928 36.6839L17.7416 36.5026L16.46 38.2801L25.3489 54.5107C25.8033 55.3787 26.1478 56.1353 25.7247 56.7207L25.4691 57.0761L25.6577 57.2115ZM23.7222 50.5093L18.019 40.0401C17.7306 39.5144 17.5042 39.2559 17.3789 39.1656L17.5297 38.9559C17.7598 39.1219 18.0467 39.2967 18.5018 39.3709L30.0392 41.7492L23.7222 50.5093ZM41.7776 36.7684L41.7448 36.7283C41.8009 36.2754 41.6327 35.8778 41.2504 35.4249L31.6419 24.071C31.2596 23.618 30.8781 23.3668 30.4222 23.3479L30.4055 23.3282L32.1568 21.8456C34.3217 20.0142 36.638 19.8781 37.9859 21.4721C39.3018 23.0268 38.8568 25.2936 36.9475 26.9095L36.0817 27.642L36.365 27.977L37.506 27.0107C40.2018 24.73 43.5624 24.7904 45.5605 27.1512C47.4582 29.3948 46.9339 32.4051 44.2374 34.6865L41.7776 36.7684ZM38.8503 39.853L44.9306 34.7076C48.2759 31.8771 49.5109 28.0294 47.4298 25.5696C45.7317 23.562 42.0354 23.144 39.0913 25.3322L39.0243 25.2528C40.7953 23.3158 40.7516 20.9893 39.802 19.8671C38.2874 18.0765 35.2217 18.6445 32.1524 21.242L26.8789 25.7043L27.0289 25.882L27.7767 25.2492C28.8195 24.3666 29.0212 24.3652 29.82 25.3096L39.7103 36.9978C40.5098 37.9422 40.4749 38.141 39.4321 39.0236L38.6842 39.6556L38.8503 39.853ZM51.2418 29.1909L55.9583 27.1104L55.8644 26.8978L54.5908 27.46C53.8131 27.8029 53.1752 27.634 52.9356 27.0915C52.8628 26.9262 52.8504 26.7063 52.8373 26.4871L52.9393 22.9481L63.222 18.4122L66.086 21.0089C66.4515 21.3264 66.9714 21.8019 67.377 21.7633L67.3974 21.81L65.416 22.6845L65.51 22.8964L70.4631 20.7118L70.3692 20.4992L70.1565 20.5932C69.2368 20.9988 68.9972 20.7104 67.9785 19.8074L55.8571 8.87005C55.5906 8.64941 55.2258 8.07778 55.0175 7.60665L54.893 7.32338L52.8883 8.2074L52.3429 26.7056C52.2948 27.6835 52.2096 28.51 51.5484 28.802L51.1479 28.9782L51.2418 29.1909ZM52.964 22.4304L53.3427 10.515C53.3594 9.91501 53.2953 9.57785 53.2327 9.43658L53.4686 9.33246C53.583 9.59169 53.7424 9.88733 54.0971 10.1822L62.8455 18.0714L52.964 22.4304ZM78.5853 18.5615L78.7186 23.3544L79.7497 23.3253L79.6732 20.5946C79.639 19.3581 79.7832 18.9926 81.1485 18.9547L93.9559 18.5979C95.3212 18.5593 95.512 18.9154 95.5462 20.1519L95.622 22.8833L96.6269 22.8556L96.4936 18.0627L93.9683 18.1333L93.5161 1.89911C93.4811 0.662648 93.626 0.297825 94.9921 0.259959L95.9963 0.232288L95.9897 0L82.2051 0.383756L82.2117 0.616044L82.8292 0.599297C84.8135 0.543955 85.0487 0.640072 85.0989 2.44379L85.2446 7.67437C85.3356 12.8037 82.5845 16.8 80.5696 18.5062L78.5853 18.5615ZM83.687 18.4195C85.0152 16.1133 86.0915 12.1636 85.9487 7.03648L85.774 0.748579L91.2878 0.594933L91.7779 18.1945L83.687 18.4195ZM107.781 15.5381L109.607 7.46757L109.355 7.41077L109.156 8.29115C108.61 10.7044 107.12 10.6315 105.561 10.2791L104.455 10.0286L105.945 3.44142C106.07 2.88872 105.896 2.37316 105.637 1.99814L105.643 1.97266L109.54 2.85376C112.205 3.4567 113.428 4.71138 112.989 7.46611L112.691 9.24871L113.195 9.36304L114.233 2.43578L113.976 2.40375L113.815 3.58341L113.765 3.57176C113.628 3.35622 113.238 3.21495 112.81 3.1181L101.773 0.621146L101.721 0.847612L102.677 1.06388C104.009 1.36535 104.132 1.52555 103.859 2.73216L100.475 17.6913C100.202 18.8979 100.023 18.9897 98.6906 18.6882L97.7352 18.4719L97.6842 18.6984L110.205 21.5303C110.657 21.633 111.046 21.668 111.287 21.5369L111.312 21.5427L110.974 22.6831L111.196 22.7588L113.214 16.0536L112.787 15.9568L112.156 17.9287C111.409 20.2968 109.93 20.9929 107.264 20.39L101.758 19.1448L101.764 19.1193C102.159 18.8921 102.539 18.5011 102.664 17.9491L104.353 10.4815L105.458 10.7313C107.017 11.0837 108.389 11.6852 107.842 14.0984L107.529 15.4813L107.781 15.5381ZM117.021 23.5197L117.042 23.4731C117.475 23.329 117.763 23.0071 118.006 22.4668L124.137 8.91521C124.382 8.37489 124.445 7.92269 124.267 7.50252L124.277 7.47921L126.368 8.4244C128.951 9.59387 130.068 11.627 129.208 13.529C128.369 15.3852 126.129 15.956 123.851 14.9257L122.818 14.4574L122.637 14.8572L123.999 15.4733C127.217 16.9289 128.605 19.9902 127.329 22.8083C126.118 25.4851 123.174 26.3036 119.956 24.8479L117.021 23.5197ZM112.978 22.2003L120.235 25.4829C124.227 27.2896 128.232 26.7536 129.561 23.8176C130.644 21.4218 129.435 17.904 126.196 16.184L126.239 16.09C128.748 16.8575 130.831 15.8199 131.436 14.4807C132.403 12.3435 130.575 9.81888 126.911 8.16153L120.617 5.31431L120.522 5.52549L121.414 5.92964C122.658 6.49253 122.746 6.67384 122.237 7.80108L115.925 21.7517C115.416 22.8782 115.221 22.9321 113.976 22.3692L113.084 21.9651L112.978 22.2003ZM135.588 35.2064L140.864 39.4219L141.009 39.2399L140.224 38.6129C139.156 37.7602 139.136 37.5789 139.908 36.6118L149.481 24.6295C150.254 23.6632 150.435 23.6428 151.502 24.4962L152.287 25.1232L152.432 24.9419L146.653 20.3244C143.108 17.4918 139.42 16.8226 137.28 19.5009C135.14 22.1791 136.608 25.6278 140.153 28.4605C137.493 31.7468 134.688 32.574 132.271 30.6429C131.405 29.9511 130.672 28.8042 130.168 27.2466L128.897 28.8384C129.143 29.8921 129.78 30.83 130.686 31.5538C133.465 33.7741 137.394 32.657 140.556 28.7824L142.247 30.1331L138.177 35.2283C137.404 36.1953 137.203 36.1997 136.135 35.347L135.733 35.0251L135.588 35.2064ZM142.536 29.7712L140.623 28.242C137.904 26.0698 137.074 23.7244 139.213 21.0461C141.354 18.3671 143.825 18.6591 146.544 20.8313L148.84 22.6656L148.824 22.686C148.37 22.718 147.975 22.9641 147.605 23.4273L142.536 29.7712ZM142.926 42.2189L149.053 49.46L149.231 49.31L147.865 47.6963C146.983 46.6535 146.998 46.4722 147.942 45.6727L160.517 35.0331L161.582 36.2922C163.33 38.358 163.539 39.3637 161.783 41.1193L161.026 41.8613L161.379 42.2378L165.658 38.0769L165.439 37.857L164.4 38.9049L155.875 28.8297L157.1 27.9624L156.919 27.7097L152.071 31.2378L152.384 31.6485L153.258 31.0441C155.23 29.544 156.22 29.9562 157.985 32.0417L159.084 33.3401L146.51 43.9804C145.565 44.7792 145.384 44.7639 144.502 43.7211L143.103 42.0689L142.926 42.2189ZM149.868 50.3338L152.172 54.9461L152.379 54.842L151.757 53.5975C151.378 52.8366 151.516 52.1907 152.046 51.9263C152.208 51.8455 152.427 51.8222 152.646 51.7996L156.185 51.7326L161.205 61.7875L158.749 64.7716C158.448 65.1524 157.999 65.6942 158.056 66.0976L158.01 66.1202L157.043 64.1825L156.835 64.2866L159.253 69.1298L159.461 69.0257L159.357 68.8181C158.908 67.9188 159.185 67.6654 160.038 66.6052L170.386 53.9769C170.594 53.7002 171.147 53.3084 171.608 53.0783L171.885 52.94L170.906 50.9797L152.404 51.3154C151.424 51.3147 150.595 51.2681 150.272 50.6222L150.077 50.2304L149.868 50.3338ZM156.704 51.7326L168.624 51.5433C169.224 51.5324 169.558 51.4516 169.695 51.3824L169.81 51.6132C169.557 51.7399 169.269 51.9125 168.992 52.2817L161.528 61.3957L156.704 51.7326ZM160.574 79.4511L161.749 86.1009L161.978 86.0609L161.803 85.0713C161.565 83.7248 161.67 83.5756 162.888 83.3607L177.991 80.6905C179.209 80.4749 179.358 80.5798 179.597 81.9255L179.771 82.9151L180 82.8743L178.713 75.5903C177.922 71.1221 175.597 68.1824 172.221 68.7795C168.844 69.3759 167.668 72.9346 168.458 77.4027C164.29 78.1127 161.637 76.8806 161.099 73.8346C160.906 72.743 161.114 71.3974 161.764 69.8951L159.759 70.2497C159.247 71.2037 159.105 72.3287 159.307 73.4705C159.927 76.9738 163.614 78.7302 168.548 77.9103L168.924 80.0424L162.502 81.1776C161.284 81.3932 161.13 81.2636 160.892 79.9186L160.803 79.4103L160.574 79.4511ZM169.381 79.9616L168.955 77.5498C168.349 74.123 169.275 71.8131 172.651 71.2168C176.027 70.6196 177.69 72.4722 178.296 75.899L178.808 78.7928L178.782 78.7972C178.42 78.5212 177.961 78.4448 177.377 78.5482L169.381 79.9616Z" fill="#FEFEFE"/>
</svg>
