<svg width="648" height="184" viewBox="0 0 648 184" fill="none" xmlns="http://www.w3.org/2000/svg">
<path d="M1.30859 165.89C13.1616 154.037 23.4525 140.427 33.8126 127.286C35.8007 124.764 40.3511 117.047 40.4013 120.258C40.5769 131.498 33.679 142.21 28.4441 151.688C24.7643 158.351 21.1364 165.079 18.3171 172.162C17.7744 173.525 14.4897 181.016 16.3405 182.387C18.4088 183.919 23.2881 176.582 23.954 175.627C26.5599 171.888 28.8347 167.933 31.5676 164.28C35.4324 159.113 39.969 154.483 44.5497 149.956C54.4369 140.185 64.9361 130.443 76.6632 122.893C77.4645 122.378 89.4989 114.998 89.4989 117.769C89.4989 121.821 86.9284 126.14 85.0089 129.531C80.6447 137.24 75.518 144.411 70.709 151.835C66.9433 157.648 56.4089 175.294 61.2409 170.332C64.6701 166.81 67.2605 162.097 70.1234 158.131C75.4863 150.7 81.1389 142.8 88.108 136.778C90.5854 134.638 93.2857 132.735 96.0875 131.044C97.3834 130.262 101.698 127.096 103.506 127.92C105.81 128.971 99.568 138.617 98.9914 139.633C94.7754 147.065 90.952 154.493 87.7419 162.425C86.993 164.276 85.2529 167.386 85.2529 169.551C85.2529 169.886 85.8148 169.17 86.0338 168.916C87.929 166.717 89.7296 164.421 91.4511 162.084C96.6574 155.016 101.371 147.57 106.239 140.268C109.817 134.9 113.685 129.602 116.293 123.674C117.444 121.058 116.895 130.005 116.732 130.946C114.434 144.178 105.947 155.541 101.114 167.891C100.909 168.417 98.7816 174.666 99.8455 173.602C104.469 168.978 107.76 162.803 111.437 157.447C117.351 148.832 124.436 141.153 131.813 133.777C134.239 131.351 136.704 128.961 139.329 126.749C140.099 126.1 143.6 122.551 144.966 122.967C147.065 123.606 131.311 157.177 130.105 160.522C128.698 164.421 127.42 168.554 127.42 172.748C127.42 176.321 132.747 170.926 133.374 170.332C149.768 154.806 161.063 134.836 174.859 117.183C177.975 113.195 175.505 121.015 175.2 122.332C173.584 129.311 171.015 135.835 167.684 142.171C164.043 149.097 160.332 155.878 157.777 163.304C157.672 163.609 155.067 171.4 157.606 169.844C159.088 168.935 160.293 167.333 161.388 166.037C164.413 162.459 167.211 158.687 169.978 154.909C176.233 146.369 182.149 137.633 188.768 129.36C189.166 128.862 198.48 117.786 198.87 118.306C199.549 119.21 198.175 123.563 197.992 124.406C197.111 128.457 195.668 132.296 194.088 136.12C190.645 144.449 186.262 152.602 184.107 161.4C183.442 164.116 181.78 168.918 182.911 171.747C184.043 174.576 189.61 168.122 190.037 167.647C198.925 157.76 206.191 146.185 213.78 135.314C219.853 126.615 225.675 117.507 232.692 109.521C233.955 108.083 235.288 106.578 236.743 105.324C238.084 104.167 236.473 107.582 236.45 107.642C233.846 114.516 231.029 121.313 228.495 128.213C225.179 137.241 220.877 147.309 220.149 157.008C219.989 159.141 220.628 162.239 223.248 160.18C228.688 155.906 231.878 148.366 235.376 142.611C241.193 133.04 246.663 123.267 252.434 113.669C254.575 110.108 256.722 106.477 259.681 103.518C260.117 103.083 262.036 100.941 262.146 102.81C262.437 107.753 259.925 113.311 258.51 117.915C255.857 126.545 253.575 135.26 251.726 144.099C250.71 148.958 247.922 157.488 250.799 162.23C253.76 167.11 260.469 157.742 261.78 156.032C269.897 145.449 276.74 133.873 284.108 122.771C288.804 115.696 293.369 107.619 299.604 101.712C300.906 100.478 299.427 109.057 299.311 109.911C298.107 118.743 296.757 127.476 296.285 136.388C296.067 140.488 294.908 147.731 298.481 150.907C301.459 153.554 305.863 145.555 306.778 143.977C312.048 134.888 315.205 124.715 319.418 115.133C320.792 112.011 322.285 108.935 323.86 105.909C324.736 104.225 326.71 99.1588 326.837 101.053C326.918 102.273 326.085 104.194 325.812 105.324C324.84 109.341 323.851 113.349 322.737 117.33C320.105 126.739 317.254 136.087 315.05 145.612C314.163 149.449 312.432 155.701 313.806 159.692C314.929 162.955 325.345 149.143 325.909 148.418C335.401 136.228 344.827 124.009 353.557 111.254C357.195 105.939 361.854 99.8348 363.928 93.6106C368.432 80.0988 353.029 120.177 350.629 134.216C350.263 136.357 348.878 142.478 350.507 144.514C351.578 145.852 355.794 136.439 355.851 136.315C359.932 127.449 364.786 119.077 370.322 111.034C374.115 105.523 378.085 100.094 382.279 94.8795C384.008 92.7299 385.829 90.2978 387.989 88.5349C389.248 87.5075 387.065 96.2312 386.915 96.8073C384.999 104.173 382.862 111.451 381.449 118.94C380.446 124.26 378.994 130.21 379.741 135.656C380.308 139.786 381.98 135.652 382.865 133.826C390.936 117.168 397.357 99.4871 407.365 83.8496C407.644 83.4135 408.438 82.2093 408.438 82.7271C408.438 84.9554 408.058 87.2587 407.78 89.4622C406.635 98.5286 405.276 107.541 405.022 116.695C404.848 122.95 403.493 131.796 406.389 137.633C409.769 144.448 417.985 133.595 420.054 131.068C427.964 121.407 433.994 110.171 440.259 99.4183C440.846 98.4104 449.785 80.9836 451.338 81.6046C452.464 82.055 451.526 92.9483 451.484 94.0986C451.196 102.088 449.928 110.093 448.898 118.013C448.379 122.002 446.867 127.235 447.604 131.288C447.802 132.376 448.744 129.382 449.166 128.36C450.585 124.918 451.627 121.376 452.704 117.818C456.022 106.862 460.132 96.0034 465.345 85.8018C467.441 81.6991 469.75 77.6581 472.519 73.9666C473.773 72.2943 476.219 68.4957 478.327 67.6708C478.546 67.5851 478.764 80.2453 478.766 80.8237C478.797 91.0757 478.756 101.743 481.89 111.62C482.296 112.9 483.392 117.21 485.843 116.598C490.694 115.385 494.457 106.613 496.385 102.981C499.977 96.214 503.086 89.1846 506.146 82.1658C506.36 81.6736 509.481 74.4093 509.977 73.2834C510.572 71.9317 510.82 70.2469 511.978 69.3302C513.077 68.4603 512.559 72.1033 512.49 73.503C512.23 78.7927 511.257 84.0558 510.684 89.3157C509.735 98.0418 508.881 107.248 509.855 116.012C510.247 119.547 513.397 109.851 513.418 109.789C519.157 92.7966 524.485 75.5276 531.866 59.1544C532.749 57.1951 536.622 45.9481 539.674 45.3182C542.147 44.8081 541.974 69.1059 541.993 70.2819C542.088 76.1255 540.456 87.3007 545.067 92.2196C548.656 96.0474 551.506 89.1917 552.51 86.7779C557.179 75.5574 559.599 63.241 562.515 51.492C563.377 48.019 564.256 44.5589 565.248 41.121C565.668 39.6673 565.965 37.5435 566.81 36.2161C567.012 35.8992 567.121 36.9154 567.152 37.2898C567.472 41.2355 567.483 45.194 567.396 49.1494C567.135 61.0177 565.574 73.058 566.371 84.9233C566.441 85.9694 568.267 96.1188 570.178 90.6823C571.413 87.1651 572.092 83.4181 573.155 79.8476C575.564 71.7519 578.507 63.809 581.549 55.9332C585.868 44.7517 590.038 32.8238 596.361 22.5752C597.041 21.4738 598.823 18.5523 599.094 19.8177C599.643 22.3764 599.509 25.2891 599.509 27.8705C599.509 36.2268 597.883 44.3367 597.02 52.6145C596.98 52.9954 595.892 63.527 597.191 63.3272C597.91 63.2166 598.847 60.6546 598.972 60.3745C602.149 53.2717 604.966 45.9643 607.757 38.7051C610.275 32.1558 612.732 25.5488 614.297 18.6952C614.726 16.8164 615.011 11.1618 615.468 13.0338C615.964 15.0611 615.919 17.5726 616.03 19.5981C616.43 26.946 616.584 34.3075 616.152 41.6578C615.578 51.409 614.053 61.136 614.053 70.9163C614.053 75.8283 615.714 66.3012 615.908 65.4502C619.091 51.4908 625.243 39.1802 631.794 26.5283C634.645 21.0207 637.464 15.4899 640.456 10.0567C641.918 7.40311 643.681 2.99142 646.167 0.979021C646.27 0.895109 647.175 11.2941 647.216 12.3017C647.649 22.8562 645.957 32.9273 644.8 43.3416" stroke="#EBFF00" stroke-linecap="round" stroke-linejoin="round"/>
</svg>
