<svg width="180" height="77" viewBox="0 0 180 77" fill="none" xmlns="http://www.w3.org/2000/svg">
<path d="M18.1609 76.5748L20.814 68.6681L20.5867 68.5921L19.9846 70.3849C19.5353 71.7246 19.3501 71.8586 18.1376 71.4514L3.33579 66.4846C2.78032 66.298 2.23163 66.4237 1.81918 66.6502L1.79359 66.6419L2.54775 64.3937C3.44643 61.7165 5.11883 59.8319 7.8969 60.5966L9.7078 61.0632L9.87715 60.5582L2.29862 58.605L2.23916 58.8662L3.9906 59.3419L3.98232 59.3667C3.73771 59.509 3.65266 59.5933 3.50062 60.0479L0 70.4805L0.227305 70.5565L0.54944 69.5969C0.998778 68.2587 1.17565 68.1488 2.38819 68.5552L17.4173 73.5988C18.6291 74.0052 18.7051 74.2001 18.2558 75.5384L17.9336 76.498L18.1609 76.5748ZM6.36299 53.4252L6.57072 53.5457L6.89135 52.9925C7.91948 51.2177 8.13173 51.0634 9.74543 51.9982L14.4255 54.71C18.9994 57.3918 20.7207 61.8076 21.1144 64.53L23.5131 63.9497C23.2113 61.496 20.4008 57.3112 14.2463 53.7444L8.62096 50.4846L12.0681 44.5371L26.5915 52.9541C27.6971 53.5953 27.9395 53.9197 27.2448 55.1187L26.8444 55.8104L27.0521 55.9308L30.6724 49.6838L30.4646 49.5633L29.9438 50.462C29.2355 51.6843 28.8464 51.6128 27.74 50.9716L14.4383 43.2628C13.3319 42.6216 13.0767 42.3198 13.785 41.0974L14.3058 40.1988L14.0981 40.0783L6.36299 53.4252ZM30.9132 48.7369L34.8105 45.1038L34.6464 44.9277L33.5942 45.9092C32.9514 46.5083 32.271 46.5602 31.8533 46.1124C31.7261 45.9754 31.6395 45.7654 31.5522 45.5554L30.4488 42.0661L38.9449 34.1444L42.6231 35.7061C43.0875 35.8921 43.7566 36.1788 44.1397 36.0034L44.1758 36.0426L42.5388 37.569L42.7021 37.7443L46.7943 33.9284L46.631 33.753L46.4556 33.9171C45.6955 34.6253 45.3635 34.4259 44.0622 33.89L28.513 27.3328C28.1781 27.2079 27.6279 26.7743 27.2643 26.3845L27.0461 26.1504L25.3902 27.6948L31.1435 45.937C31.4296 46.908 31.6268 47.7442 31.0803 48.253L30.7499 48.5616L30.9132 48.7369ZM30.2968 41.5528L26.6178 29.7933C26.4304 29.2017 26.2528 28.8938 26.1436 28.7772L26.3386 28.5958C26.5388 28.8095 26.7947 29.0444 27.241 29.2114L38.4616 33.9396L30.2968 41.5528ZM51.2802 31.1345L51.2538 31.0878C51.3999 30.6392 51.308 30.2019 51.0085 29.6676L43.4917 16.2574C43.1921 15.723 42.8542 15.3926 42.395 15.2842L42.3822 15.2602L44.4506 14.1003C47.0073 12.6672 49.385 12.9849 50.4395 14.8673C51.4691 16.7038 50.5719 18.9166 48.317 20.1803L47.2941 20.7538L47.5154 21.149L48.8634 20.3933C52.0479 18.6087 55.4454 19.3305 57.0087 22.1199C58.4937 24.7685 57.37 27.7212 54.1855 29.5057L51.2802 31.1345ZM47.7036 33.689L54.8847 29.6638C58.8354 27.4487 60.8457 23.787 59.217 20.8818C57.8878 18.5109 54.2193 17.3601 50.8022 19.0016L50.7496 18.9083C52.9278 17.2908 53.341 14.9207 52.5981 13.596C51.4127 11.4811 48.1905 11.4547 44.565 13.4869L38.3367 16.9785L38.4541 17.1877L39.337 16.6925C40.5683 16.0023 40.7738 16.0399 41.3985 17.1554L49.1374 30.9606C49.7621 32.0768 49.6876 32.271 48.4562 32.9612L47.5733 33.4564L47.7036 33.689ZM62.3307 25.1922L67.5263 24.0128L67.4737 23.7788L66.0707 24.0971C65.2134 24.2913 64.5992 23.994 64.4638 23.3964C64.4224 23.215 64.4532 22.9892 64.4841 22.7642L65.2849 19.1936L76.6132 16.621L79.0067 19.8205C79.3145 20.2157 79.748 20.7997 80.1673 20.8411L80.1793 20.8931L77.9966 21.3883L78.0493 21.6224L83.5061 20.3835L83.4526 20.1494L83.2185 20.2029C82.2055 20.4324 82.0188 20.093 81.1638 18.976L71.0239 5.48613C70.7981 5.20991 70.54 4.55811 70.4226 4.03877L70.3511 3.72642L68.1428 4.22843L63.9384 22.8876C63.6968 23.8713 63.4469 24.6925 62.7191 24.8581L62.2773 24.9582L62.3307 25.1922ZM65.4121 18.6727L68.1488 6.65877C68.2843 6.05363 68.2858 5.69838 68.2504 5.54258L68.5101 5.48387C68.5748 5.76913 68.6779 6.10105 68.9797 6.46985L76.2986 16.201L65.4121 18.6727ZM94.6815 20.8306L104.413 22.022L104.443 21.7835L102.274 21.5178C100.872 21.3462 100.756 21.1979 100.912 19.9289L102.98 3.02945L104.672 3.23643C107.45 3.57664 108.314 4.19307 108.214 6.75737L108.16 7.85173L108.693 7.88937L109.017 1.72886L108.697 1.71606L108.645 3.24019L95.1045 1.58284L95.4244 0.0647276L95.1098 0L93.9093 6.07998L94.4354 6.1718L94.674 5.10002C95.1166 2.57711 96.1575 2.19475 98.9604 2.53721L100.705 2.75096L98.6368 19.6504C98.4817 20.9194 98.3327 21.0353 96.9312 20.8637L94.7101 20.592L94.6815 20.8306ZM117.952 6.49544L119.972 7.17359C123.484 8.35225 124.759 10.7472 123.649 14.0559C122.539 17.3646 120.077 18.5056 116.565 17.3277L115 16.8024L117.839 8.34021C118.034 7.75916 118.103 7.13596 117.909 6.62189L117.952 6.49544ZM107.876 22.7868L114.671 25.0665L114.747 24.8393L114.066 24.6104C112.727 24.1611 112.593 23.9759 113 22.7634L114.848 17.257L117.247 18.0623C121.44 19.469 124.964 18.179 126.075 14.8703C127.193 11.5352 125.161 8.38011 120.968 6.97339L113.971 4.62584L113.895 4.85314L114.854 5.17528C116.193 5.62462 116.302 5.80149 115.896 7.01402L110.852 22.0431C110.446 23.2549 110.251 23.3309 108.913 22.8816L107.953 22.5594L107.876 22.7868ZM133.997 28.659L138.65 21.4831L138.426 21.3379L137.919 22.1206C136.527 24.2665 135.108 23.6636 133.722 22.7649L132.738 22.1274L136.536 16.2702C136.855 15.7787 136.87 15.2158 136.752 14.7596L136.767 14.7371L140.232 16.9838C142.602 18.5199 143.34 20.1735 141.932 22.6897L141.006 24.3124L141.453 24.6022L144.934 18.2535L144.696 18.1308L144.118 19.2176L144.074 19.1883C144.018 18.9301 143.69 18.6539 143.31 18.4078L133.495 12.0448L133.365 12.2465L134.214 12.7975C135.399 13.5652 135.461 13.7639 134.766 14.8372L126.143 28.1389C125.446 29.2122 125.24 29.237 124.055 28.4686L123.206 27.9176L123.075 28.1193L134.209 35.3373C134.611 35.5978 134.975 35.7709 135.256 35.7295L135.278 35.7438L134.544 36.7298L134.731 36.8825L139.083 31.0991L138.704 30.853L137.387 32.5397C135.817 34.5696 134.134 34.7171 131.764 33.181L126.868 30.007L126.883 29.9844C127.347 29.9046 127.854 29.6615 128.173 29.17L132.478 22.5301L133.461 23.1676C134.847 24.0663 135.962 25.1388 134.571 27.2846L133.774 28.5145L133.997 28.659ZM138.158 38.5346L145.183 45.374L145.351 45.2024L143.786 43.6783C142.773 42.6931 142.771 42.5049 143.663 41.5882L155.539 29.3898L156.761 30.579C158.765 32.5307 159.081 33.5438 157.449 35.5247L156.744 36.3632L157.145 36.7162L161.132 32.0091L160.885 31.8044L159.921 32.986L150.147 23.4702L151.32 22.4556L151.109 22.214L146.473 26.3265L146.836 26.7179L147.675 26.0089C149.554 24.2695 150.614 24.5946 152.638 26.5643L153.897 27.7912L142.021 39.9895C141.129 40.9055 140.941 40.9085 139.929 39.9233L138.326 38.3623L138.158 38.5346ZM147.765 47.8819L151.521 53.8926C153.892 57.6883 157.146 59.174 159.654 57.607C162.162 56.04 162.253 52.4641 159.881 48.6684L158.695 46.771L165.158 42.733C166.242 42.0556 166.475 42.1286 167.224 43.3268L167.761 44.1848L167.964 44.0576L164.011 37.7308L163.807 37.858L164.344 38.7168C165.092 39.9143 165.088 40.1062 164.003 40.7843L150.558 49.1848C149.474 49.8622 149.276 49.7967 148.528 48.5992L147.991 47.7412L147.765 47.8819ZM158.311 47.0111L159.2 48.4344C161.092 51.4616 160.776 53.922 158.313 55.4604C155.849 56.9996 153.523 56.1913 151.631 53.1641L150.487 51.3336L150.533 51.305C150.987 51.4299 151.419 51.317 151.939 50.9926L158.311 47.0111ZM159.614 70.1734L162.123 76.6869L162.346 76.6011L161.973 75.6317C161.466 74.313 161.542 74.1414 162.735 73.6816L177.529 67.9854C178.723 67.5263 178.895 67.6023 179.402 68.921L179.776 69.8904L180 69.8039L177.252 62.6679C175.567 58.2919 172.625 55.7698 169.319 57.0433C166.012 58.316 165.523 62.1591 167.207 66.5358C163.119 68.081 160.185 67.3547 159.036 64.3712C158.624 63.3024 158.569 61.8964 158.932 60.2436L156.967 61C156.637 62.0688 156.716 63.2377 157.146 64.3569C158.468 67.7882 162.556 68.8404 167.399 67.0333L168.203 69.1212L161.912 71.5432C160.719 72.0031 160.537 71.9023 160.03 70.5844L159.839 70.0869L159.614 70.1734ZM168.651 68.9488L167.741 66.587C166.448 63.2301 166.932 60.7035 170.238 59.4307C173.545 58.1572 175.598 59.7069 176.891 63.0638L177.982 65.8991L177.957 65.9081C177.535 65.7003 177.054 65.7132 176.483 65.9337L168.651 68.9488Z" fill="#FEFEFE"/>
</svg>
