<svg width="1228" height="51" viewBox="0 0 1228 51" fill="none" xmlns="http://www.w3.org/2000/svg">
<path d="M173.665 24.0395C275.089 26.1793 376.762 25.6433 478.112 28.839C493.664 29.3293 509.773 28.4823 524.65 31.3987C530.806 32.6057 512.284 33.9683 505.858 34.2784C462.316 36.3797 359.495 37.2136 319.205 37.478C284.061 37.7087 178.812 34.7043 213.771 36.9981C247.85 39.2341 281.937 41.0908 316.178 42.1175C426.198 45.4165 536.278 44.2228 646.353 43.0774C738.623 42.1173 831.399 42.6869 923.558 39.2378C957.507 37.9673 994.205 35.9992 1026.97 29.6389C1034.4 28.1969 1034.86 26.9057 1026.47 25.6393C987.475 19.7556 943.336 19.9946 904.01 20.2799C691.133 21.8243 478.807 38.2194 266.74 48.7568C259.024 49.1402 225.667 49.9567 255.768 49.9567C369.397 49.9567 483.036 50.1736 596.663 49.6367C737.755 48.97 878.674 45.9366 1019.66 42.5975C1065.63 41.5087 1114.21 42.4001 1160.15 38.7579C1170.64 37.9266 1139.02 37.8888 1128.62 36.6781C995.203 21.1348 862.809 17.3134 727.068 17.0803C547.049 16.7711 367.181 21.6218 187.286 25.0794C131.859 26.1447 86.4407 27.0139 32.5402 27.3191C22.5773 27.3756 -6.14073 24.4253 2.65046 27.3991C10.1379 29.9319 19.1641 29.8969 27.4956 30.9187C59.3608 34.8269 67.8534 35.7351 105.31 37.0781C261.327 42.672 419.009 37.2634 574.97 33.7184C761.414 29.4807 947.738 23.5836 1134.05 17.4802C1156.96 16.7297 1179.88 16.0961 1202.78 15.2405C1210.57 14.9494 1218.9 15.9249 1226.11 14.0406C1230.69 12.8455 1216.3 13.1399 1211.36 13.0007C1192.62 12.473 1173.86 12.2428 1155.11 12.0408C971.433 10.0625 787.478 14.6529 603.851 16.6003C490.269 17.8049 408.657 18.5213 299.909 19.4C285.321 19.5179 270.734 19.6163 256.146 19.72C252.274 19.7475 256.306 19.5714 261.695 19.72C320.478 21.341 378.776 27.7446 437.503 30.1188C586.087 36.126 735.815 32.2769 884.462 29.4789C967.74 27.9114 1050.97 25.6259 1134.17 22.9196C1136.45 22.8457 1143.26 22.6857 1140.98 22.5997C1118.6 21.752 1096.16 20.9255 1073.76 20.2799C946.742 16.6179 819.524 15.7204 692.385 15.7204C562.948 15.7204 432.677 20.1311 303.314 16.6003C262.288 15.4805 218.141 12.9914 179.845 2.52184C173.843 0.880827 178.757 1.00201 175.936 1.00201" stroke="#EBFF00" stroke-linecap="round" stroke-linejoin="round"/>
</svg>
