<svg width="50" height="28" viewBox="0 0 50 28" fill="none" xmlns="http://www.w3.org/2000/svg">
<path d="M0 13.7953C0.0131569 13.642 0.0840149 13.5178 0.164345 13.4046C1.61086 11.0349 1.85191 8.22572 2.67151 5.7977C3.18237 4.30704 3.89165 2.85454 5.03481 1.76809C6.17789 0.681645 7.77487 0 9.88467 0C12.8439 0 15.0045 2.22605 16.3786 4.97533C17.6449 7.50908 18.3146 10.5505 18.4131 13.1579H19.0912C19.0909 12.9018 19.0912 12.6234 19.0912 12.3766C19.1235 12.0322 19.4662 11.7482 19.8105 11.7805C20.1549 11.8127 20.4387 12.1555 20.4064 12.5V13.1579H21.0641C21.0637 12.9018 21.0641 12.6234 21.0641 12.3766C21.0963 12.0322 21.439 11.7482 21.7834 11.7805C22.1277 11.8127 22.4116 12.1555 22.3793 12.5V13.1579H49.333C49.6804 13.1513 50 13.4682 50 13.8158C50 14.1634 49.6804 14.4786 49.333 14.4737H46.0449V16.4474H47.3602C47.7045 16.4474 48.0178 16.7608 48.0178 17.1053V23.6842C48.0178 24.0287 47.7045 24.3421 47.3602 24.3421H45.3874C45.043 24.3421 44.7297 24.0287 44.7297 23.6842V21.0526H44.0721V23.6842C44.0721 24.0287 43.7588 24.3421 43.4145 24.3421H38.1536C37.8093 24.3421 37.496 24.0287 37.496 23.6842V21.0526H36.8384V23.6842C36.8384 24.0287 36.5251 24.3421 36.1808 24.3421H34.2079C33.8636 24.3421 33.5503 24.0287 33.5503 23.6842C33.5503 21.4551 33.5503 19.2012 33.5503 16.9819C33.6076 16.6803 33.9011 16.442 34.2079 16.4474H35.5232V14.4737H22.3793V15.1316C22.3859 15.4791 22.0691 15.7989 21.7217 15.7989C21.3742 15.7989 21.0592 15.4791 21.0641 15.1316V14.4737H20.4064V15.1316C20.413 15.4791 20.0963 15.7989 19.7489 15.7989C19.4014 15.7989 19.0863 15.4791 19.0912 15.1316V14.4737H18.4131C18.3146 17.0811 17.6449 20.1226 16.3786 22.6562C15.0045 25.4055 12.8439 27.6316 9.88467 27.6316C7.77487 27.6316 6.17789 26.9499 5.03481 25.8635C3.89165 24.777 3.18237 23.3245 2.67151 21.8339C1.61046 19.3595 1.78901 16.3328 0.164345 14.227C0.0585556 14.1053 0.00500107 13.9533 0 13.7953ZM5.07592 13.3429C5.32862 13.5875 5.32862 14.0441 5.07592 14.2886C3.12645 16.8642 2.99415 18.6816 3.92513 21.4227C4.40066 22.8103 5.0271 24.0305 5.93901 24.8972C6.85092 25.7639 8.04889 26.3158 9.88474 26.3158C12.1864 26.3158 13.9509 24.5945 15.2072 22.0806C16.1177 20.0919 16.903 18.054 16.0088 15.9745C15.735 15.3583 15.3306 14.9465 14.673 14.2886C14.3768 13.8834 14.4764 13.6205 14.673 13.3429C15.3306 12.685 15.735 12.2732 16.0088 11.6571C16.8016 9.50497 16.1638 7.49099 15.2072 5.55099C13.9509 3.03711 12.1864 1.31579 9.88474 1.31579C8.04889 1.31579 6.85092 1.86773 5.93901 2.73438C5.0271 3.60109 4.40066 4.82125 3.92513 6.20888C2.91244 8.64566 3.49507 11.7346 5.07592 13.3429Z" fill="white"/>
</svg>
