<svg width="24" height="34" viewBox="0 0 24 34" fill="none" xmlns="http://www.w3.org/2000/svg">
<path fill-rule="evenodd" clip-rule="evenodd" d="M0 0C7.84648 0 15.6934 0 23.5399 0V24.3292C23.5399 37.2236 0 37.2236 0 24.3292V0ZM11.8701 19.1785H8.71697L11.8843 13.1841C11.9012 9.36557 11.9275 5.53841 11.9275 1.88963H1.88958V24.3293C1.88958 29.6367 7.01347 32.2392 12.0532 32.1287C12.0039 30.7499 11.9668 29.3102 11.9392 27.8248L11.7703 27.8261C9.06372 27.8261 6.8714 26.8783 6.8714 25.7089C6.8714 24.5391 9.06372 23.5913 11.7703 23.5913L11.8856 23.5922C11.8744 22.1447 11.8709 20.6697 11.8701 19.1786L11.8701 19.1785Z" fill="white"/>
</svg>
