<svg width="282" height="36" viewBox="0 0 282 36" fill="none" xmlns="http://www.w3.org/2000/svg">
<path d="M15.6 35L11.52 32.36L11.52 20.84H14.4C22.32 20.84 27.84 18.44 27.84 12.44C27.84 6.44 22.32 3.8 14.4 3.8L0.72 3.8L4.32 6.44L4.32 32.36L0.72 35H15.6ZM11.52 5.48H12.96C17.28 5.48 20.16 7.88 20.16 12.44C20.16 17 17.28 19.16 12.96 19.16H11.52L11.52 5.48ZM44.1769 35L57.6169 35V34.568H55.7929C53.2489 34.568 52.9129 34.376 52.9129 32.072L52.9129 3.512C52.9129 1.208 53.2489 1.016 55.7929 1.016H57.6169V0.487998L44.1769 0.487998V0.919998H46.0009C48.5449 0.919998 48.8329 1.112 48.8329 3.416L48.8329 32.072C48.8329 34.376 48.5449 34.568 46.0009 34.568H44.1769V35ZM101.265 23.672L81.969 3.8L72.225 3.8L77.745 9.512L77.745 31.4L72.945 35H84.945L79.665 31.4L79.665 11.48L103.185 35.72L103.185 7.4L107.985 3.8L95.985 3.8L101.265 7.4V23.672ZM122.348 35L131.948 35V34.568H129.356C127.772 34.568 126.812 33.8 126.812 32.696C126.812 32.36 126.956 31.976 127.1 31.592L129.932 25.64L150.86 25.64L153.788 32.216C154.172 33.032 154.7 34.232 155.42 34.472V34.568H151.388V35L161.468 35V34.568H161.036C159.164 34.568 158.972 33.896 157.916 31.592L145.484 3.848C145.196 3.272 145.004 2.024 145.004 1.064V0.487998L140.924 0.487998L126.092 31.592C125.276 33.224 124.508 34.568 123.164 34.568H122.348V35ZM130.364 24.776L139.964 4.76C140.444 3.752 140.588 3.128 140.588 2.84H141.068C141.068 3.368 141.116 3.992 141.5 4.76L150.476 24.776L130.364 24.776ZM205.387 3.8L178.027 3.8V15.32L184.267 5.48H188.107V32.36L183.787 35L199.627 35L195.307 32.36V5.48H199.147L205.387 15.32V3.8ZM237.075 35L232.995 32.36V20.84H234.435L244.227 35H254.115L250.995 32.36L242.259 20.168C246.579 19.112 249.315 16.664 249.315 12.44C249.315 6.44 243.795 3.8 235.875 3.8L222.195 3.8L225.795 6.44V32.36L222.195 35L237.075 35ZM232.995 5.48H234.435C238.755 5.48 241.635 7.88 241.635 12.44C241.635 17 238.755 19.16 234.435 19.16H232.995V5.48ZM268.511 35H281.951V34.568H280.127C277.583 34.568 277.247 34.376 277.247 32.072V3.512C277.247 1.208 277.583 1.016 280.127 1.016H281.951V0.487998L268.511 0.487998V0.919998L270.335 0.919998C272.879 0.919998 273.167 1.112 273.167 3.416V32.072C273.167 34.376 272.879 34.568 270.335 34.568H268.511V35Z" fill="white"/>
</svg>
