<svg width="397" height="594" viewBox="0 0 397 594" fill="none" xmlns="http://www.w3.org/2000/svg">
<path d="M212.403 496.312C236.717 491.62 261.03 486.929 285.344 482.237M212.403 496.312C177.819 528.183 143.236 560.053 108.652 591.925M212.403 496.312C106.33 331.448 0.257081 166.586 -105.816 1.72295M212.403 496.312C142.131 510.664 71.8602 525.016 1.58862 539.369M285.344 482.237C321.916 424.749 358.488 367.261 395.061 309.773M285.344 482.237C234.752 446.085 184.158 409.932 133.566 373.78M395.061 309.773C357.734 243.131 320.407 176.489 283.081 109.847M395.061 309.773C337.399 253.313 279.738 196.855 222.076 140.395M283.081 109.847C153.449 73.8051 23.8158 37.7647 -105.816 1.72295M283.081 109.847C262.746 120.029 242.412 130.213 222.076 140.395M-105.816 1.72295C-171.258 10.7595 -236.701 19.7971 -302.143 28.8337M-105.816 1.72295C3.48183 47.9469 112.778 94.1709 222.076 140.395M-105.816 1.72295C-158.263 29.7219 -210.712 57.7205 -263.159 85.7194C-273.944 107.876 -284.727 130.034 -295.512 152.191M-105.816 1.72295C-132.216 67.7317 -158.617 133.742 -185.017 199.75M-302.143 28.8337C-299.933 69.9527 -297.722 111.072 -295.512 152.191M-302.143 28.8337C-263.101 85.8058 -224.059 142.778 -185.017 199.75M-295.512 152.191C-239.793 239.14 -184.074 326.088 -128.356 413.037M-295.512 152.191C-258.68 168.044 -221.849 183.897 -185.017 199.75M-128.356 413.037C-105.393 468.934 -82.4311 524.833 -59.4684 580.73M-128.356 413.037C-41.0483 399.952 46.2591 386.865 133.566 373.78M-128.356 413.037C-85.0403 455.147 -41.7267 497.259 1.58862 539.369M-128.356 413.037C-147.243 341.941 -166.129 270.847 -185.017 199.75M-59.4684 580.73C-3.42822 584.461 52.612 588.193 108.652 591.925M-59.4684 580.73C-39.1158 566.943 -18.7636 553.156 1.58862 539.369M-59.4684 580.73L1.58862 539.369M108.652 591.925C72.9645 574.406 37.2766 556.887 1.58862 539.369M222.076 140.395C192.574 218.19 163.069 295.984 133.566 373.78M133.566 373.78C89.5743 428.977 45.5806 484.172 1.58862 539.369" stroke="#4F4F4F" stroke-miterlimit="22.9256"/>
</svg>
