<svg width="480" height="596" viewBox="0 0 480 596" fill="none" xmlns="http://www.w3.org/2000/svg">
<path d="M-106.766 321.64L-106.766 321.64C-115.677 306.026 -114.801 287.396 -104.017 266.19L-66.0287 191.489C-34.6037 129.694 21.6401 98.4117 85.1638 90.254C148.701 82.0945 219.497 97.0767 279.917 127.803C307.287 141.721 331.033 158.485 348.59 176.285C361.482 189.358 387.493 215.734 404.325 250.554C421.149 285.358 428.789 328.564 404.993 375.356L367.003 450.063C351.614 480.323 322.52 511.158 288.596 530.006C254.674 548.853 216.006 555.673 181.401 538.075C165.875 530.179 152.934 518.082 142.928 502.108L142.504 502.374L142.928 502.108C99.7423 433.221 55.6313 386.946 11.8092 364.661C-15.858 350.591 -37.1347 349.364 -52.6432 348.469L-52.6715 348.467L-52.7003 348.966L-52.6717 348.467L-52.7081 348.465C-63.8287 347.828 -75.2214 347.175 -86.9312 341.24C-87.4094 340.997 -99.2197 334.881 -106.766 321.64Z" stroke="#4F4F4F"/>
<path d="M280.185 428.83C316.993 417.063 389.899 379.623 374.293 290.396C366.652 246.707 311.443 189.6 241.48 158.501C168.558 126.086 74.3022 120.904 33.6558 147.654C-6.9906 174.404 -33.8291 206.91 -27.6454 221.48C-22.2985 234.079 3.17005 231.457 26.3077 235.369C76.2037 243.808 162.181 314.627 188.824 362.047C215.467 409.466 243.378 440.596 280.185 428.83Z" stroke="#4F4F4F"/>
<circle cx="274.223" cy="307.248" r="41.768" transform="rotate(26.9549 274.223 307.248)" stroke="#4F4F4F"/>
<path d="M77.9832 373.424C127.793 395.367 149.092 440.07 181.202 483.496C213.312 526.922 305.317 499.193 338.162 434.605" stroke="#4F4F4F"/>
</svg>
