<svg width="272" height="462" viewBox="0 0 272 462" fill="none" xmlns="http://www.w3.org/2000/svg">
<path d="M112.657 342.179C25.2072 342.179 -45.6852 271.286 -45.6852 183.836C-45.6852 96.386 25.2072 25.4937 112.657 25.4937C200.108 25.4937 271 96.386 271 183.836C271 271.286 200.108 342.179 112.657 342.179Z" stroke="#4F4F4F" stroke-miterlimit="22.9256"/>
<path d="M44.2757 0.576172C-56.9362 38.3408 -108.37 151.003 -70.6057 252.215C-32.8411 353.427 79.8215 404.861 181.033 367.096" stroke="#4F4F4F" stroke-miterlimit="22.9256"/>
<path fill-rule="evenodd" clip-rule="evenodd" d="M112.654 416.009C82.6078 416.009 56.8726 434.451 46.1387 460.631H179.17C168.436 434.451 142.701 416.009 112.654 416.009Z" stroke="#4F4F4F" stroke-miterlimit="22.9256"/>
<path d="M112.656 416.008V379.49" stroke="#4F4F4F" stroke-miterlimit="22.9256"/>
<path d="M240.074 89.7783L-45.272 195.989" stroke="#4F4F4F" stroke-miterlimit="22.9256"/>
<path d="M270.566 171.686L-14.7798 277.896" stroke="#4F4F4F" stroke-miterlimit="22.9256"/>
<path d="M167.889 332.233C219.34 219.77 169.881 86.8916 57.4182 35.4404" stroke="#4F4F4F" stroke-miterlimit="22.9256"/>
<path d="M167.889 332.233C55.4261 280.782 5.96653 147.903 57.4177 35.4404" stroke="#4F4F4F" stroke-miterlimit="22.9256"/>
</svg>
