<svg width="714" height="829" viewBox="0 0 714 829" fill="none" xmlns="http://www.w3.org/2000/svg">
<path d="M648.444 180.555C583.694 180.555 531.203 233.046 531.203 297.796" stroke="#4D4D4D"/>
<path d="M414.31 414.683C479.06 414.683 531.551 362.193 531.551 297.442" stroke="#4D4D4D"/>
<path d="M648.099 180.563C712.849 180.563 765.34 233.053 765.34 297.804" stroke="#4D4D4D"/>
<path d="M180.579 648.449C245.33 648.449 297.82 595.959 297.82 531.208" stroke="#4D4D4D"/>
<path d="M414.714 414.322C349.963 414.322 297.473 466.812 297.473 531.562" stroke="#4D4D4D"/>
<path d="M180.924 648.444C116.174 648.444 63.6836 595.953 63.6836 531.203" stroke="#4D4D4D"/>
<path d="M180.595 180.544C180.595 245.295 233.086 297.785 297.836 297.785" stroke="#4D4D4D"/>
<path d="M414.729 414.677C414.729 349.927 362.239 297.436 297.488 297.436" stroke="#4D4D4D"/>
<path d="M180.595 180.907C180.595 116.157 233.086 63.6665 297.836 63.6665" stroke="#4D4D4D"/>
<path d="M648.52 648.453C648.52 583.703 596.03 531.212 531.279 531.212" stroke="#4D4D4D"/>
<path d="M414.386 414.321C414.386 479.071 466.877 531.562 531.627 531.562" stroke="#4D4D4D"/>
<path d="M648.52 648.091C648.52 712.841 596.03 765.332 531.279 765.332" stroke="#4D4D4D"/>
<path d="M745.339 414.506C699.553 368.72 625.321 368.72 579.535 414.506" stroke="#4D4D4D"/>
<path d="M414.21 414.5C459.995 460.285 534.228 460.285 580.014 414.5" stroke="#4D4D4D"/>
<path d="M745.078 414.252C790.864 460.037 790.864 534.27 745.078 580.056" stroke="#4D4D4D"/>
<path d="M83.6495 414.497C129.435 460.282 203.668 460.282 249.453 414.497" stroke="#4D4D4D"/>
<path d="M414.778 414.503C368.993 368.718 294.76 368.718 248.975 414.503" stroke="#4D4D4D"/>
<path d="M83.9102 414.751C38.1247 368.966 38.1247 294.733 83.9102 248.947" stroke="#4D4D4D"/>
<path d="M414.473 83.6407C368.687 129.426 368.687 203.659 414.473 249.444" stroke="#4D4D4D"/>
<path d="M414.473 414.747C460.258 368.961 460.258 294.728 414.473 248.943" stroke="#4D4D4D"/>
<path d="M414.204 83.9019C459.99 38.1164 534.222 38.1164 580.008 83.9019" stroke="#4D4D4D"/>
<path d="M414.529 745.355C460.315 699.57 460.315 625.337 414.529 579.551" stroke="#4D4D4D"/>
<path d="M414.529 414.249C368.744 460.034 368.744 534.267 414.529 580.052" stroke="#4D4D4D"/>
<path d="M414.798 745.099C369.012 790.884 294.78 790.884 248.994 745.099" stroke="#4D4D4D"/>
</svg>
