<svg width="642" height="853" viewBox="0 0 642 853" fill="none" xmlns="http://www.w3.org/2000/svg">
<path d="M506.624 79.9532L506.624 79.9532C529.891 75.1482 552.923 83.8829 575.113 106.072L653.192 184.152C717.827 248.786 734.067 332.072 718.353 415.023C702.636 497.987 654.953 580.592 591.782 643.764C563.149 672.397 529.013 700.817 499.544 715.549C477.913 726.36 435.09 746.815 385.431 752.319C335.79 757.82 279.338 748.379 230.378 699.419L152.293 621.334C120.642 589.682 93.8718 540.62 84.0995 490.398C74.3275 440.177 81.5647 388.89 117.785 352.67C134.036 336.419 154.498 325.131 178.62 319.109L178.498 318.624L178.62 319.109C282.535 293.126 358.478 256.761 404.252 210.986C433.147 182.091 443.36 155.962 450.808 136.904L450.822 136.87L450.356 136.688L450.822 136.87L450.843 136.816C456.178 123.149 461.656 109.117 473.894 96.8456C474.399 96.3402 486.908 84.0125 506.624 79.9532Z" stroke="#4F4F4F"/>
<path d="M214.449 521.122C214.167 572.035 231.316 678.653 349.467 695.519C407.318 703.778 501.394 657.921 568.909 582.966C639.28 504.84 684.242 388.873 667.32 327.034C650.397 265.196 620.629 218.306 599.851 220.106C581.885 221.662 574.776 254.639 560.431 282.029C529.495 341.093 405.683 419.899 335.402 433.923C265.121 447.947 214.731 470.208 214.449 521.122Z" stroke="#4F4F4F"/>
<path d="M366.379 290.426C318.561 343.87 253.865 352.309 186.356 374.812C118.847 397.315 116.035 523.893 183.543 591.402" stroke="#4F4F4F"/>
<path d="M216.676 559.285L547.832 603.44M366.309 424.37L643.499 463.618M538.02 313.985L668.029 331.156M295.172 677.03L317.249 436.635M461.976 667.218L484.053 360.592M596.892 549.473L626.328 233.036" stroke="#4F4F4F"/>
</svg>
