<svg width="396" height="531" viewBox="0 0 396 531" fill="none" xmlns="http://www.w3.org/2000/svg">
<path d="M-19.7116 115.289C21.8633 115.289 55.5664 148.992 55.5664 190.567" stroke="#4D4D4D"/>
<path d="M130.622 265.618C89.0469 265.618 55.3438 231.915 55.3438 190.34" stroke="#4D4D4D"/>
<path d="M280.696 415.714C239.121 415.714 205.418 382.011 205.418 340.436" stroke="#4D4D4D"/>
<path d="M130.363 265.385C171.938 265.385 205.641 299.088 205.641 340.663" stroke="#4D4D4D"/>
<path d="M280.474 415.71C322.049 415.71 355.752 382.007 355.752 340.432" stroke="#4D4D4D"/>
<path d="M280.684 115.282C280.684 156.857 246.981 190.56 205.406 190.56" stroke="#4D4D4D"/>
<path d="M130.351 265.614C130.351 224.039 164.054 190.336 205.629 190.336" stroke="#4D4D4D"/>
<path d="M280.684 115.515C280.684 73.9399 246.981 40.2368 205.406 40.2368" stroke="#4D4D4D"/>
<path d="M-19.7604 415.717C-19.7604 374.143 13.9427 340.439 55.5176 340.439" stroke="#4D4D4D"/>
<path d="M130.573 265.386C130.573 306.96 96.8698 340.664 55.2949 340.664" stroke="#4D4D4D"/>
<path d="M-19.7604 415.485C-19.7604 457.06 13.9427 490.763 55.5176 490.763" stroke="#4D4D4D"/>
<path d="M-81.924 265.504C-52.5261 236.106 -4.86274 236.106 24.5352 265.504" stroke="#4D4D4D"/>
<path d="M130.688 265.5C101.29 294.898 53.6264 294.898 24.2285 265.5" stroke="#4D4D4D"/>
<path d="M342.932 265.498C313.534 294.896 265.871 294.896 236.473 265.498" stroke="#4D4D4D"/>
<path d="M130.32 265.501C159.718 236.104 207.381 236.104 236.779 265.501" stroke="#4D4D4D"/>
<path d="M342.766 265.661C372.164 236.263 372.164 188.6 342.766 159.202" stroke="#4D4D4D"/>
<path d="M130.518 53.0618C159.915 82.4597 159.915 130.123 130.518 159.521" stroke="#4D4D4D"/>
<path d="M130.518 265.658C101.12 236.261 101.12 188.597 130.518 159.199" stroke="#4D4D4D"/>
<path d="M130.69 53.2295C101.292 23.8316 53.6284 23.8316 24.2305 53.2295" stroke="#4D4D4D"/>
<path d="M130.482 477.936C101.085 448.538 101.085 400.874 130.482 371.477" stroke="#4D4D4D"/>
<path d="M130.482 265.339C159.88 294.737 159.88 342.4 130.482 371.798" stroke="#4D4D4D"/>
<path d="M130.31 477.771C159.708 507.169 207.372 507.169 236.77 477.771" stroke="#4D4D4D"/>
</svg>
