<svg width="700" height="991" viewBox="0 0 700 991" fill="none" xmlns="http://www.w3.org/2000/svg">
<path d="M353.039 743.25C416.355 852.916 574.645 852.917 637.961 743.25L781.288 495C844.604 385.334 765.459 248.25 638.827 248.25H352.173C225.541 248.25 146.396 385.333 209.712 495L353.039 743.25Z" stroke="#4F4F4F"/>
<path d="M353.039 247.75C416.355 138.084 574.645 138.083 637.961 247.75L781.288 496C844.604 605.666 765.459 742.75 638.827 742.75H352.173C225.541 742.75 146.396 605.667 209.712 496L353.039 247.75Z" stroke="#4F4F4F"/>
<path d="M422.223 415.581C376.179 415.581 338.854 452.907 338.854 498.951" stroke="#4F4F4F"/>
<path d="M419.529 415.581C465.572 415.581 502.898 452.907 502.898 498.951" stroke="#4F4F4F"/>
<path d="M583.577 585.008C537.533 585.008 502.896 544.993 502.896 498.949" stroke="#4F4F4F"/>
<path d="M580.888 585.009C626.932 585.009 664.258 547.684 664.258 501.64" stroke="#4F4F4F"/>
</svg>
