<svg width="333" height="581" viewBox="0 0 333 581" fill="none" xmlns="http://www.w3.org/2000/svg">
<path d="M200.047 430.729C309.978 430.729 399.094 341.612 399.094 231.682C399.094 121.751 309.978 32.6345 200.047 32.6345C90.1164 32.6345 1 121.751 1 231.682C1 341.612 90.1164 430.729 200.047 430.729Z" stroke="#4F4F4F" stroke-miterlimit="22.9256"/>
<path d="M286.007 1.31177C413.237 48.7843 477.893 190.409 430.42 317.638C382.948 444.868 241.323 509.524 114.094 462.052" stroke="#4F4F4F" stroke-miterlimit="22.9256"/>
<path fill-rule="evenodd" clip-rule="evenodd" d="M200.052 523.538C237.822 523.538 270.173 546.721 283.666 579.631H116.438C129.931 546.721 162.282 523.538 200.052 523.538Z" stroke="#4F4F4F" stroke-miterlimit="22.9256"/>
<path d="M200.049 523.537V477.631" stroke="#4F4F4F" stroke-miterlimit="22.9256"/>
<path d="M39.877 113.444L398.576 246.958" stroke="#4F4F4F" stroke-miterlimit="22.9256"/>
<path d="M1.54492 216.407L360.244 349.921" stroke="#4F4F4F" stroke-miterlimit="22.9256"/>
<path d="M130.618 418.226C65.9408 276.853 128.115 109.816 269.488 45.1382" stroke="#4F4F4F" stroke-miterlimit="22.9256"/>
<path d="M130.617 418.226C271.99 353.548 334.164 186.511 269.486 45.1382" stroke="#4F4F4F" stroke-miterlimit="22.9256"/>
</svg>
