<svg width="567" height="591" viewBox="0 0 567 591" fill="none" xmlns="http://www.w3.org/2000/svg">
<path d="M182.785 97.0967C158.493 101.902 134.202 106.706 109.91 111.511M182.785 97.0967C217.219 65.064 251.654 33.0327 286.088 1M182.785 97.0967C289.626 261.463 396.468 425.828 503.309 590.194M182.785 97.0967C252.989 82.4161 323.192 67.7366 393.396 53.0557M109.91 111.511C73.6069 169.17 37.3034 226.827 1 284.486M109.91 111.511C160.671 147.427 211.432 183.343 262.193 219.259M1 284.486C38.637 350.953 76.275 417.42 113.912 483.887M1 284.486C58.9246 340.676 116.849 396.864 174.773 453.054M113.912 483.887C243.71 519.323 373.511 554.758 503.309 590.194M113.912 483.887C134.199 473.61 154.485 463.331 174.773 453.054M503.309 590.194C568.708 580.852 634.108 571.509 699.507 562.167M503.309 590.194C393.797 544.481 284.286 498.768 174.773 453.054M503.309 590.194C555.625 561.951 607.943 533.708 660.259 505.464C670.94 483.257 681.62 461.049 692.301 438.843M503.309 590.194C529.401 524.063 555.494 457.93 581.585 391.799M699.507 562.167C697.106 521.059 694.702 479.951 692.301 438.843M699.507 562.167C660.2 505.378 620.892 448.589 581.585 391.799M692.301 438.843C636.177 352.154 580.052 265.468 523.929 178.779M692.301 438.843C655.395 423.161 618.491 407.48 581.585 391.799M523.929 178.779C500.705 122.99 477.483 67.1994 454.259 11.4102M523.929 178.779C436.683 192.272 349.438 205.766 262.193 219.259M523.929 178.779C480.417 136.872 436.907 94.9631 393.396 53.0557M523.929 178.779C543.148 249.786 562.366 320.792 581.585 391.799M454.259 11.4102C398.202 7.94023 342.145 4.47029 286.088 1M454.259 11.4102C433.971 25.292 413.684 39.1738 393.396 53.0557M454.259 11.4102L393.396 53.0557M286.088 1C321.857 18.3521 357.627 35.7039 393.396 53.0557M174.773 453.054C203.912 375.122 233.053 297.191 262.193 219.259M262.193 219.259C305.927 163.858 349.662 108.457 393.396 53.0557" stroke="#4F4F4F" stroke-miterlimit="22.9256"/>
</svg>
