<svg width="474" height="626" viewBox="0 0 474 626" fill="none" xmlns="http://www.w3.org/2000/svg">
<path d="M75.6965 477.25C113.609 542.917 208.391 542.917 246.303 477.25L345.896 304.75C383.809 239.083 336.418 157 260.593 157H61.407C-14.4183 157 -61.8091 239.083 -23.8964 304.75L75.6965 477.25Z" stroke="#4F4F4F"/>
<path d="M75.6965 148.75C113.609 83.0833 208.391 83.0833 246.303 148.75L345.896 321.25C383.809 386.917 336.418 469 260.593 469H61.407C-14.4183 469 -61.8091 386.917 -23.8964 321.25L75.6965 148.75Z" stroke="#4F4F4F"/>
<path d="M207.286 262.517C236.371 262.517 259.949 286.095 259.949 315.18" stroke="#4F4F4F"/>
<path d="M208.988 262.517C179.902 262.517 156.324 286.095 156.324 315.18" stroke="#4F4F4F"/>
<path d="M105.36 369.542C134.445 369.542 156.324 344.264 156.324 315.179" stroke="#4F4F4F"/>
<path d="M107.058 369.542C77.9728 369.542 54.3945 345.964 54.3945 316.878" stroke="#4F4F4F"/>
</svg>
