<svg width="413" height="439" viewBox="0 0 413 439" fill="none" xmlns="http://www.w3.org/2000/svg">
<path d="M-12.2969 191.17C-11.864 180.884 -13.0099 168.806 -12.6854 158.516C-12.4777 151.922 -12.4804 145.323 -12.3862 138.726C-12.3358 135.191 -12.7103 131.625 -12.251 128.119C-11.6901 123.838 -11.2427 119.373 -9.34189 115.497C-7.64419 112.035 -5.18715 108.539 -1.77197 106.748C3.70325 103.877 10.0252 103.853 16.1868 103.348C19.3621 103.088 23.4191 102.43 26.3888 101.804" stroke="#4F4F4F" stroke-miterlimit="22.9256"/>
<path fill-rule="evenodd" clip-rule="evenodd" d="M26.3281 112.699C26.3281 123.159 34.8035 123.608 43.8012 124.1C48.8135 124.375 57.3008 123.633 66.1263 123.708C77.5514 123.806 88.9881 124.254 100.403 123.753C113.393 123.184 126.305 121.397 139.277 120.501C149.258 119.812 159.269 119.631 169.253 118.999C186.55 117.905 192.644 116.81 209.326 113.916C220.693 111.943 219.323 108.992 219.323 102.551C219.323 97.925 219.094 92.9556 218.286 89.3618C216.164 79.9224 206.138 82.4209 201.503 82.3427C183.08 82.0309 169.573 81.9163 151.148 81.8764C138.125 81.8483 125.045 82.1373 112.053 83.0288C106.411 83.4158 100.698 84.3483 95.0432 84.4444C83.7083 84.6372 72.6656 84.6228 61.3296 84.7385C52.2853 84.8307 43.1053 84.3521 34.2008 85.9411C31.7155 86.3847 28.6278 87.5193 27.7307 89.8794C25.7723 95.0312 26.5318 100.853 26.4368 106.364C26.4017 108.403 26.3281 110.659 26.3281 112.699V112.699Z" stroke="#4F4F4F" stroke-miterlimit="22.9256"/>
<path d="M218.945 93.6958C224.946 95.4211 233.809 95.953 239.49 98.5435C243.339 100.299 247.312 102.647 249.617 106.195C252.835 111.148 254.168 117.174 255.356 122.961C257.109 131.505 257.55 140.271 258.394 148.953C259.335 158.649 259.913 172.853 260.351 182.585" stroke="#4F4F4F" stroke-miterlimit="22.9256"/>
<path d="M85.4588 183.528C84.7463 180.527 83.672 177.59 83.3209 174.526C82.992 171.657 82.1353 168.442 83.4334 165.862C85.2813 162.19 88.3609 158.799 92.0976 157.086C96.4956 155.069 101.687 155.774 106.5 155.285C113.504 154.574 120.53 154.106 127.542 153.485C129.419 153.318 131.284 152.978 133.168 152.922C137.592 152.791 142.049 152.417 146.445 152.922C151.89 153.548 157.577 153.965 162.536 156.298C165.006 157.46 166.891 160.159 167.487 162.824C168.405 166.929 167.518 171.279 166.812 175.426C166.344 178.175 164.936 180.678 163.999 183.303" stroke="#4F4F4F" stroke-miterlimit="22.9256"/>
<path d="M7.03711 198.833C8.61233 196.47 9.73613 193.734 11.763 191.745C13.8345 189.712 16.2509 187.68 19.0769 187.019C25.3034 185.561 31.815 185.787 38.2054 185.556C45.2897 185.299 52.3896 185.859 59.472 185.556C68.1542 185.184 76.7814 183.899 85.4636 183.53C96.2197 183.074 106.993 183.173 117.758 183.08C128.597 182.986 139.437 182.915 150.277 182.968C154.853 182.99 159.427 183.237 164.003 183.305C169.404 183.386 174.806 183.43 180.207 183.418C191.835 183.392 203.464 182.957 215.089 183.192C221.966 183.332 229.032 182.776 235.68 184.543C239.541 185.568 242.345 188.953 245.582 191.294C246.551 191.995 247.382 192.869 248.283 193.657" stroke="#4F4F4F" stroke-miterlimit="22.9256"/>
<path fill-rule="evenodd" clip-rule="evenodd" d="M0.168363 212.334C1.15777 211.859 2.33855 211.781 3.43151 211.884C5.16132 212.047 6.78353 212.822 8.49505 213.122C11.2904 213.611 14.0979 214.158 16.9342 214.247C23.7199 214.459 30.5116 213.99 37.3005 214.022C46.2281 214.064 55.1528 214.57 64.08 214.472C72.3003 214.382 80.5088 213.812 88.7222 213.459C96.2243 213.137 103.718 212.474 111.227 212.447C123.981 212.399 136.734 212.866 149.483 213.234C156.1 213.425 162.702 214.101 169.321 214.123C179.709 214.157 190.121 214.206 200.478 213.404C211.182 212.575 221.745 210.424 232.414 209.237C239.107 208.492 245.833 207.149 252.552 207.608C254.67 207.753 256.341 209.602 257.953 210.984C261.618 214.125 265.593 217.118 268.305 221.111C273.775 229.163 278.22 237.908 282.258 246.766C284.438 251.548 286.01 256.659 286.871 261.844C288.16 269.599 288.456 277.502 288.671 285.361C288.944 295.334 288.736 305.322 288.334 315.291C287.986 323.897 287.383 332.5 286.421 341.059C285.619 348.191 284.456 355.288 283.045 362.325C281.566 369.701 280.552 377.282 277.756 384.267C275.701 389.399 271.959 393.696 268.699 398.162C265.611 402.392 262.365 406.534 258.741 410.314C255.423 413.777 252.004 417.275 247.939 419.822C245.14 421.577 241.714 422.044 238.544 422.973C234.096 424.277 229.654 425.67 225.097 426.517C217.839 427.868 210.497 428.765 203.156 429.556C193.088 430.641 182.968 431.181 172.888 432.144C165.695 432.831 158.548 434.002 151.34 434.507C144.603 434.978 137.837 434.847 131.087 435.069C126.997 435.204 122.893 435.166 118.822 435.576C114.497 436.012 110.274 437.288 105.938 437.602C101.692 437.909 97.4227 437.56 93.1674 437.433C89.2731 437.317 85.3803 437.129 81.4931 436.871C75.2337 436.455 68.9862 435.871 62.7301 435.408C55.315 434.859 47.8216 435.004 40.479 433.832C31.4366 432.389 22.5194 430.146 13.7272 427.588C7.34575 425.73 0.545583 424.347 -4.95133 420.611C-12.2559 415.647 -18.5045 409.072 -23.8549 402.045C-27.9703 396.641 -31.3397 390.412 -32.9692 383.817C-35.345 374.201 -35.0099 364.107 -35.6699 354.224C-36.3229 344.447 -36.702 334.651 -36.9072 324.856C-37.0769 316.756 -36.9987 308.65 -36.7952 300.551C-36.6236 293.718 -36.2912 286.888 -35.7824 280.072C-35.2408 272.819 -34.4668 265.583 -33.6445 258.355C-33.229 254.703 -33.3717 250.878 -32.0691 247.441C-30.6123 243.597 -27.953 240.306 -25.5428 236.976C-23.0285 233.502 -20.1086 230.34 -17.3292 227.074C-14.745 224.038 -12.5017 220.641 -9.45266 218.073C-6.59693 215.667 -3.19749 213.951 0.168363 212.334V212.334Z" stroke="#4F4F4F" stroke-miterlimit="22.9256"/>
<path d="M284.992 255.738C287.472 254.248 290.277 253.198 292.431 251.268C297.35 246.858 301.99 242.079 306.046 236.865C313.309 227.527 319.829 217.625 326.3 207.722C328.466 204.407 329.485 200.375 331.926 197.257C333.37 195.414 335.427 193.895 337.665 193.206C341.453 192.041 345.517 191.954 349.48 191.856C354.659 191.728 359.838 192.192 365.008 192.531C367.83 192.717 370.763 192.537 373.447 193.431C374.307 193.718 374.812 194.888 374.797 195.794C374.771 197.336 373.806 198.715 373.334 200.183C372.118 203.966 370.8 207.72 369.733 211.547C366.899 221.713 364.146 231.904 361.632 242.153C358.819 253.623 356.52 265.215 353.755 276.697C350.857 288.734 348.647 300.989 344.641 312.704C341.677 321.372 337.189 329.456 332.94 337.571C329.679 343.8 326.59 350.247 322.138 355.687C318.198 360.501 312.773 363.877 308.073 367.952C304.878 370.723 301.926 373.81 298.452 376.223C294.099 379.247 289.48 381.918 284.693 384.195C281.967 385.491 278.926 385.986 276.043 386.881" stroke="#4F4F4F" stroke-miterlimit="22.9256"/>
<path d="M329.646 201.082C330.72 200.667 331.718 199.891 332.868 199.838C334.286 199.773 335.625 200.547 337.031 200.738C339.756 201.11 342.519 201.161 345.245 201.526C348.673 201.986 352.026 203.142 355.485 203.214C359.331 203.293 363.185 202.711 366.962 201.976C368.722 201.634 370.429 200.926 371.969 200.007C372.812 199.504 373.281 198.544 373.936 197.812" stroke="#4F4F4F" stroke-miterlimit="22.9256"/>
<path fill-rule="evenodd" clip-rule="evenodd" d="M-17.0491 206.424C-16.7539 207.147 -16.364 207.929 -15.6988 208.337C-15.1713 208.661 -14.4164 208.625 -13.8421 208.393C-13.1646 208.12 -12.9065 206.709 -12.2105 206.93C-11.2681 207.23 -12.5071 209.699 -9.0037 210.7C-8.24458 210.917 -7.38297 210.8 -6.64065 210.531C-5.57321 210.145 -4.5417 209.565 -3.71517 208.787C-3.21441 208.316 -3.44874 206.663 -2.81507 206.93C-1.86139 207.333 -1.67512 209.986 0.504417 211.488C0.869091 211.739 1.34072 211.997 1.77068 211.892C2.79793 211.638 3.96659 211.313 4.61152 210.475C5.6728 209.095 6.22587 207.341 6.58055 205.636C7.04368 203.411 6.84125 201.097 7.03496 198.832C7.31075 195.607 7.90848 186.479 3.03609 185.72C1.72836 185.516 0.469118 186.465 -0.677002 187.126C-1.37275 187.528 -3.23568 191.291 -3.65883 191.009C-4.45452 190.478 -4.23338 189.036 -5.00929 188.477C-5.68123 187.993 -6.66021 188.172 -7.48461 188.252C-13.1946 188.805 -12.7816 193.097 -13.2233 196.072C-13.3251 196.758 -14.1608 194.768 -14.8549 194.778C-15.7456 194.791 -16.6787 195.38 -17.1616 196.128C-19.0674 199.083 -18.2973 203.369 -17.0491 206.424V206.424Z" stroke="#4F4F4F" stroke-miterlimit="22.9256"/>
<path fill-rule="evenodd" clip-rule="evenodd" d="M252.804 207.634C251.972 208.013 251.184 206.682 250.812 205.846C249.734 203.427 249.213 200.787 248.674 198.195C248.364 196.707 248.295 195.174 248.273 193.654C248.239 191.229 247.658 188.653 248.505 186.38C249.29 184.274 250.646 181.292 252.893 181.26C254.949 181.231 256.301 185.596 256.494 186.268C256.683 186.925 258.461 182.951 260.151 182.611C261.461 182.347 262.652 183.805 263.47 184.861C264.469 186.15 264.563 190.77 265.383 189.362C266.666 187.159 266.915 186.712 268.253 186.436C269.219 186.237 270.018 187.468 270.559 188.293C271.21 189.285 271.799 190.488 271.684 191.669C271.52 193.36 270.696 194.969 269.771 196.394C269.478 196.847 268.792 196.934 268.253 196.957C267.455 196.992 266.554 197.006 265.889 196.563C265.352 196.205 265.575 194.45 265.046 194.819C264.111 195.47 263.601 202.41 260.995 202.639C258.944 202.82 256.732 196.771 255.945 198.673C255.607 199.493 254.772 202.42 254.019 204.384C253.606 205.458 253.851 207.157 252.804 207.634V207.634Z" stroke="#4F4F4F" stroke-miterlimit="22.9256"/>
<path d="M256.5 186.268C256.462 187.492 256.446 188.718 256.385 189.941C256.314 191.386 256.113 192.826 256.104 194.273C256.095 195.618 256.255 196.96 256.33 198.303" stroke="#4F4F4F" stroke-miterlimit="22.9256"/>
<path d="M265.117 189.625C265.168 190.406 265.259 191.185 265.268 191.967C265.28 192.901 265.21 193.835 265.181 194.77" stroke="#4F4F4F" stroke-miterlimit="22.9256"/>
<circle r="22.2428" transform="matrix(-1 0 0 1 381.16 134.941)" stroke="#4F4F4F"/>
<circle r="16.1781" transform="matrix(-1 0 0 1 341.74 71.2611)" stroke="#4F4F4F"/>
<circle r="11.6295" transform="matrix(-1 0 0 1 400.87 12.1295)" stroke="#4F4F4F"/>
</svg>
