<svg width="539" height="628" viewBox="0 0 539 628" fill="none" xmlns="http://www.w3.org/2000/svg">
<path fill-rule="evenodd" clip-rule="evenodd" d="M553.873 161.43C553.873 176.414 541.733 177.057 528.844 177.762C521.665 178.155 509.508 177.092 496.866 177.2C480.5 177.34 464.118 177.982 447.768 177.265C429.16 176.449 410.666 173.889 392.084 172.606C377.788 171.619 363.448 171.36 349.146 170.455C324.37 168.888 315.641 167.32 291.745 163.173C275.464 160.348 277.426 156.12 277.426 146.894C277.426 140.268 277.754 133.15 278.911 128.002C281.95 114.481 296.311 118.06 302.951 117.948C329.34 117.501 348.687 117.337 375.081 117.28C393.734 117.24 412.47 117.654 431.08 118.931C439.162 119.485 447.345 120.821 455.445 120.958C471.681 121.235 487.499 121.214 503.737 121.38C516.692 121.512 529.841 120.826 542.596 123.102C546.156 123.738 550.579 125.363 551.864 128.744C554.669 136.123 553.581 144.462 553.717 152.356C553.768 155.278 553.873 158.508 553.873 161.43V161.43Z" stroke="#4F4F4F" stroke-miterlimit="22.9256"/>
<path d="M277.965 134.21C269.369 136.682 256.674 137.444 248.536 141.154C243.023 143.668 237.332 147.033 234.031 152.115C229.421 159.209 227.512 167.841 225.811 176.13C223.298 188.369 222.667 200.925 221.459 213.361C220.11 227.25 219.282 247.596 218.655 261.536" stroke="#4F4F4F" stroke-miterlimit="22.9256"/>
<path d="M469.173 262.886C470.194 258.588 471.733 254.381 472.236 249.992C472.707 245.882 473.934 241.277 472.075 237.582C469.428 232.322 465.016 227.464 459.664 225.01C453.364 222.122 445.928 223.131 439.034 222.431C429.002 221.412 418.937 220.742 408.893 219.852C406.204 219.614 403.533 219.127 400.835 219.046C394.498 218.858 388.114 218.323 381.816 219.046C374.017 219.943 365.87 220.54 358.768 223.882C355.229 225.547 352.529 229.413 351.676 233.23C350.361 239.11 351.631 245.341 352.643 251.282C353.313 255.218 355.329 258.803 356.672 262.564" stroke="#4F4F4F" stroke-miterlimit="22.9256"/>
<path d="M581.504 284.811C579.248 281.426 577.638 277.505 574.735 274.656C571.767 271.745 568.306 268.834 564.258 267.887C555.339 265.8 546.012 266.123 536.858 265.792C526.711 265.424 516.541 266.226 506.396 265.792C493.959 265.259 481.602 263.418 469.165 262.89C453.758 262.236 438.327 262.379 422.906 262.245C407.38 262.111 391.853 262.009 376.326 262.084C369.771 262.116 363.219 262.47 356.664 262.568C348.928 262.684 341.19 262.746 333.454 262.729C316.798 262.692 300.141 262.068 283.489 262.406C273.638 262.606 263.516 261.81 253.994 264.34C248.464 265.809 244.446 270.658 239.81 274.011C238.422 275.015 237.231 276.268 235.942 277.396" stroke="#4F4F4F" stroke-miterlimit="22.9256"/>
<path fill-rule="evenodd" clip-rule="evenodd" d="M591.344 304.148C589.926 303.468 588.235 303.356 586.67 303.503C584.192 303.738 581.868 304.848 579.416 305.276C575.412 305.977 571.391 306.762 567.328 306.888C557.608 307.192 547.88 306.52 538.155 306.566C525.367 306.627 512.584 307.351 499.796 307.211C488.021 307.082 476.263 306.265 464.498 305.76C453.752 305.299 443.019 304.349 432.263 304.31C413.993 304.242 395.726 304.911 377.464 305.438C367.986 305.711 358.529 306.679 349.048 306.71C334.168 306.76 319.254 306.83 304.418 305.681C289.086 304.494 273.956 301.413 258.673 299.712C249.085 298.645 239.451 296.721 229.827 297.379C226.793 297.587 224.399 300.236 222.09 302.214C216.841 306.714 211.147 311.001 207.262 316.72C199.428 328.255 193.06 340.781 187.276 353.469C184.154 360.319 181.902 367.64 180.668 375.067C178.823 386.175 178.397 397.495 178.09 408.752C177.699 423.039 177.997 437.345 178.573 451.625C179.071 463.952 179.935 476.275 181.313 488.535C182.462 498.752 184.127 508.917 186.149 518.997C188.267 529.563 189.72 540.422 193.724 550.426C196.668 557.778 202.029 563.933 206.698 570.33C211.121 576.389 215.771 582.322 220.961 587.737C225.715 592.698 230.612 597.708 236.434 601.357C240.444 603.869 245.352 604.539 249.893 605.869C256.264 607.737 262.626 609.732 269.153 610.946C279.551 612.881 290.067 614.166 300.582 615.299C315.003 616.853 329.5 617.626 343.939 619.006C354.242 619.99 364.479 621.668 374.803 622.391C384.454 623.066 394.146 622.879 403.815 623.197C409.673 623.389 415.552 623.335 421.383 623.923C427.579 624.546 433.627 626.375 439.838 626.824C445.92 627.264 452.036 626.764 458.131 626.582C463.709 626.415 469.285 626.147 474.853 625.777C483.819 625.181 492.768 624.345 501.73 623.681C512.351 622.895 523.085 623.103 533.602 621.425C546.555 619.358 559.328 616.144 571.922 612.479C581.063 609.819 590.803 607.838 598.677 602.487C609.14 595.376 618.091 585.957 625.755 575.892C631.65 568.151 636.476 559.229 638.81 549.782C642.213 536.008 641.733 521.549 642.679 507.392C643.614 493.389 644.157 479.357 644.451 465.325C644.694 453.723 644.582 442.112 644.291 430.511C644.045 420.724 643.569 410.94 642.84 401.177C642.064 390.787 640.955 380.422 639.778 370.07C639.182 364.838 639.387 359.359 637.521 354.436C635.434 348.93 631.625 344.216 628.173 339.446C624.571 334.47 620.389 329.94 616.407 325.263C612.706 320.914 609.492 316.048 605.125 312.368C601.034 308.922 596.165 306.464 591.344 304.148V304.148Z" stroke="#4F4F4F" stroke-miterlimit="22.9256"/>
<path d="M183.358 366.321C179.807 364.186 175.788 362.683 172.703 359.918C165.657 353.601 159.01 346.756 153.201 339.287C142.797 325.911 133.458 311.728 124.189 297.542C121.086 292.793 119.627 287.019 116.13 282.553C114.063 279.912 111.115 277.737 107.91 276.75C102.483 275.081 96.6623 274.956 90.9864 274.816C83.5676 274.633 76.1491 275.297 68.7441 275.783C64.7007 276.049 60.5001 275.792 56.656 277.073C55.4233 277.484 54.7005 279.158 54.7219 280.457C54.7584 282.666 56.1416 284.641 56.8171 286.743C58.5587 292.162 60.4463 297.539 61.9747 303.022C66.0345 317.583 69.9789 332.181 73.5793 346.862C77.6087 363.292 80.9013 379.896 84.8621 396.343C89.0142 413.584 92.1791 431.139 97.9169 447.92C102.162 460.336 108.592 471.915 114.678 483.54C119.349 492.462 123.773 501.696 130.151 509.489C135.795 516.384 143.566 521.221 150.298 527.058C154.875 531.026 159.103 535.449 164.078 538.905C170.314 543.236 176.931 547.062 183.787 550.323C187.693 552.181 192.048 552.889 196.178 554.172" stroke="#4F4F4F" stroke-miterlimit="22.9256"/>
<path d="M119.396 288.031C117.858 287.437 116.429 286.326 114.782 286.25C112.751 286.156 110.833 287.265 108.819 287.539C104.915 288.071 100.958 288.144 97.0528 288.668C92.1422 289.326 87.3393 290.983 82.3858 291.085C76.8756 291.199 71.3559 290.364 65.9458 289.312C63.4245 288.822 60.9787 287.808 58.7735 286.492C57.5658 285.771 56.8945 284.396 55.9552 283.348" stroke="#4F4F4F" stroke-miterlimit="22.9256"/>
<path fill-rule="evenodd" clip-rule="evenodd" d="M229.467 297.416C230.658 297.96 231.788 296.053 232.321 294.856C233.865 291.391 234.61 287.609 235.383 283.896C235.827 281.765 235.927 279.568 235.957 277.392C236.007 273.918 236.839 270.228 235.625 266.972C234.5 263.956 232.558 259.684 229.339 259.639C226.395 259.597 224.457 265.85 224.181 266.811C223.911 267.752 221.364 262.061 218.943 261.573C217.066 261.195 215.361 263.283 214.189 264.796C212.758 266.642 212.624 273.261 211.449 271.244C209.61 268.088 209.255 267.448 207.339 267.053C205.954 266.767 204.81 268.53 204.034 269.712C203.103 271.133 202.259 272.857 202.423 274.548C202.658 276.97 203.838 279.275 205.163 281.317C205.584 281.966 206.566 282.089 207.339 282.123C208.481 282.173 209.772 282.193 210.723 281.559C211.493 281.046 211.174 278.532 211.932 279.061C213.271 279.993 214.001 289.933 217.735 290.262C220.672 290.522 223.841 281.856 224.967 284.581C225.452 285.755 226.649 289.948 227.727 292.761C228.318 294.299 227.967 296.733 229.467 297.416V297.416Z" stroke="#4F4F4F" stroke-miterlimit="22.9256"/>
<path d="M224.172 266.812C224.227 268.565 224.25 270.32 224.337 272.073C224.439 274.143 224.726 276.205 224.74 278.278C224.752 280.205 224.524 282.127 224.416 284.051" stroke="#4F4F4F" stroke-miterlimit="22.9256"/>
<path d="M211.828 271.621C211.756 272.738 211.625 273.854 211.612 274.974C211.595 276.313 211.695 277.651 211.737 278.989" stroke="#4F4F4F" stroke-miterlimit="22.9256"/>
<circle cx="45.6083" cy="193.29" r="32.077" stroke="#4F4F4F"/>
<circle cx="102.075" cy="102.075" r="23.3898" stroke="#4F4F4F"/>
<circle cx="17.3744" cy="17.3744" r="16.8744" stroke="#4F4F4F"/>
</svg>
