<svg width="336" height="30" viewBox="0 0 336 30" fill="none" xmlns="http://www.w3.org/2000/svg">
<path d="M1 21.6041C8.94115 20.1977 16.202 16.9826 23.6458 14.6293C27.9887 13.2562 36.5544 8.68715 37.4128 12.0634C37.8854 13.9224 36.0475 17.4926 35.6171 19.3635C35.2041 21.1586 33.559 22.9627 35.8166 21.8932C39.9824 19.9198 46.1913 19.4085 50.681 17.6288C59.6271 14.0827 69.2963 10.0559 77.0179 5.16081C80.4339 2.99524 79.7216 5.47185 79.6616 7.69055C79.5793 10.7313 80.5805 13.1999 85.3978 12.8585C88.4349 12.6432 91.3718 12.5116 94.4262 12.3886C96.7392 12.2955 101.033 10.9906 103.255 11.3406C107.393 11.9924 107.443 22.8483 107.794 25.0374C108.055 26.6654 108.916 31.171 111.435 27.7478C112.415 26.4169 114.067 25.3401 114.927 23.9893C114.956 23.9436 124.177 24.8173 125.203 24.7844C134.617 24.482 143.343 22.4983 151.889 19.761C159.46 17.3357 159.919 17.253 159.919 22.9051C159.919 23.1021 159.792 28.4898 160.817 27.6755C167.516 22.3521 174.583 16.8983 183.064 13.003C188.009 10.732 187.03 19.2119 187.453 20.9898C188.904 27.0835 196.397 26.046 200.273 21.3873C203.238 17.823 208.696 5.91742 207.007 9.89504C205.734 12.8915 205.702 18.5625 207.007 21.5319C208.71 25.4117 222.199 17.3788 223.018 16.9422C229.25 13.6203 234.422 9.87188 239.828 5.91973C242.271 4.1339 242.376 4.88802 242.472 7.04005C242.618 10.3198 240.719 16.5953 243.519 19.4358C245.644 21.5913 248.166 17.7295 249.106 16.906C255.243 11.526 262.424 5.12299 270.554 1.29392C275.787 -1.17013 279.618 12.5976 280.281 15.0629C280.726 16.7169 280.876 17.5182 280.131 19.0021C279.928 19.4071 278.793 20.3392 279.333 20.1586C279.863 19.9815 282.222 18.2173 282.825 18.7853C284.712 20.5625 281.634 22.3246 286.366 23.7363C292.562 25.5847 296.016 24.8128 300.283 21.3873C309.288 14.1576 322.906 11.2362 335 7.29302" stroke="#EBFF00" stroke-linecap="round" stroke-linejoin="round"/>
</svg>
