<svg width="478" height="460" viewBox="0 0 478 460" fill="none" xmlns="http://www.w3.org/2000/svg">
<path fill-rule="evenodd" clip-rule="evenodd" d="M194.507 259.671C173.821 249.034 178.442 238.679 178.444 211.219C178.444 190.082 178.502 168.937 178.44 147.804C178.397 132.599 173.943 126.152 186.657 123.313C218.183 116.269 233.489 82.3498 228.077 72.9164C215.972 76.5465 220.724 90.4494 194.662 89.2332C163.465 87.7781 104.487 67.197 69.4661 69.1277C48.3271 70.2936 22.5676 92.2421 10.5151 107.41C-14.5842 138.999 11.4291 170.448 24.6531 163.6C24.5766 149.294 10.1569 160.587 7.54161 138.488C2.02742 91.9101 66.9422 109.938 96.0763 114.47C84.3783 126.258 52.3453 140.665 45.9487 155.924C36.3922 178.719 44.4079 212.442 47.5325 237.12C50.8772 263.557 55.0836 291.169 57.8575 317.566C60.1557 339.435 62.5733 359.937 49.5303 377.711C45.4973 383.209 41.0147 384.494 43.4416 390.325C49.3904 393.511 51.5953 388.098 56.5032 382.802C97.8615 338.183 101.576 342.665 92.4201 266.942C89.0642 239.192 86.2884 211.995 84.0593 184.217C81.4775 152.057 88.566 131.953 106.957 117.237L136.073 122.395C138.847 153.312 136.496 195.838 136.481 228.004C136.468 252.702 134.939 286.022 170.225 298.371C178.203 291.991 184.053 284.765 190.987 276.708C195.287 271.714 196.602 270.612 202.267 265.521C207.416 260.893 209.595 259.641 205.254 252.793C198.74 254.312 200.572 256.287 194.507 259.671Z" fill="white"/>
<path fill-rule="evenodd" clip-rule="evenodd" d="M423.963 145C413.483 164.236 369.115 188.64 349.327 202.834C343.891 206.732 343.354 205.042 344.492 210.277C345.565 215.213 346.913 214.759 351.663 213.006C356.951 211.055 377.59 196.224 383.834 192.473C395.701 185.347 402.208 176.085 416.434 194.165C443.615 228.711 409.339 253.562 382.604 271.449C366.556 282.185 369.798 277.422 371.022 283.979L381.358 284.761C429.494 283.463 436.55 338.358 426.067 376.336C419.745 399.24 408.041 411.671 395.453 424.17C385.962 433.595 373.328 441.488 361.812 448.267C354.509 452.565 353.396 451.946 353.517 458.585C360.773 463.97 379.44 450.996 386.816 447.213C509.305 384.365 490.646 279.534 427.466 254.015C439.261 233.624 472.73 227.461 469.796 197.444C467.621 175.224 442.326 148.779 423.963 145Z" fill="white"/>
<path fill-rule="evenodd" clip-rule="evenodd" d="M206.999 459.545C214.429 455.007 216.906 438.856 219.619 430.902L294.48 226.075C309.22 187.448 325.815 150.87 340.935 112.017C353.078 80.8052 380.064 23.9864 387.805 0.317926C354.466 0.133249 362.596 -4.43144 350.297 28.0978C329.867 82.1353 186.517 448.157 184.051 459.532L206.999 459.545Z" fill="white"/>
</svg>
